<?xml version="1.0" encoding="utf-8"?>
<!-- Generator: Adobe Illustrator 26.2.1, SVG Export Plug-In . SVG Version: 6.00 Build 0)  -->
<svg version="1.1" id="Calque_1" xmlns="http://www.w3.org/2000/svg" xmlns:xlink="http://www.w3.org/1999/xlink" x="0px" y="0px"
	 viewBox="0 0 100 16" style="enable-background:new 0 0 100 16;" xml:space="preserve">
<style type="text/css">
	.st0{fill:#1D1D1B;}
	.st1{fill:#8800FF;}
</style>
<g>
	<g>
		<path class="st0" d="M97.74,1.32c0.62,0,1.15,0.22,1.59,0.66c0.44,0.44,0.67,0.98,0.67,1.6c0,0.62-0.22,1.15-0.66,1.6
			c-0.44,0.44-0.97,0.67-1.6,0.67c-0.62,0-1.16-0.22-1.6-0.66c-0.44-0.44-0.67-0.98-0.67-1.6s0.22-1.16,0.67-1.6
			C96.59,1.54,97.12,1.32,97.74,1.32z M97.74,5.47c0.52,0,0.96-0.19,1.33-0.56c0.37-0.37,0.56-0.82,0.56-1.34
			c0-0.52-0.19-0.96-0.56-1.33c-0.37-0.37-0.82-0.55-1.33-0.55c-0.52,0-0.96,0.18-1.33,0.55c-0.37,0.37-0.55,0.81-0.55,1.33
			c0,0.52,0.18,0.97,0.55,1.34C96.77,5.29,97.21,5.47,97.74,5.47z M98.76,4.83h-0.45L98.12,4.3C98,3.98,97.79,3.82,97.47,3.82h-0.31
			v1.01h-0.39V2.4h0.92c0.64,0,0.97,0.22,0.97,0.67c0,0.43-0.21,0.66-0.63,0.69c0.22,0.07,0.38,0.22,0.48,0.46L98.76,4.83z
			 M97.16,3.49h0.49c0.39,0,0.58-0.13,0.58-0.38c0-0.25-0.2-0.37-0.6-0.37h-0.47V3.49z"/>
	</g>
	<g>
		<path class="st1" d="M20.76,15.94l3.17-14.87h5.94c0.96,0,1.79,0.17,2.49,0.52s1.23,0.83,1.6,1.46c0.37,0.63,0.55,1.36,0.55,2.19
			c0,0.96-0.26,1.9-0.78,2.83C33.2,9,32.44,9.76,31.44,10.36c-0.99,0.6-2.16,0.9-3.49,0.9h-2.38l-1,4.68H20.76z M28.16,7.82
			c0.48,0,0.9-0.1,1.27-0.3c0.37-0.2,0.65-0.46,0.85-0.78s0.3-0.65,0.3-0.98c0-0.37-0.14-0.68-0.41-0.91
			c-0.28-0.23-0.64-0.34-1.08-0.34h-2.09L26.3,7.82H28.16z"/>
		<path class="st1" d="M45.85,15.94h-3.82l-0.3-2.33H36.4l-1.29,2.33h-4.03l8.9-14.89h3.33L45.85,15.94z M40.46,6.27l-2.31,4.17
			h3.19l-0.53-4.17l-0.03-0.68h-0.02L40.46,6.27z"/>
		<path class="st1" d="M60.42,8.12c-0.56,0.89-1.35,1.59-2.35,2.11l1.64,5.71h-4.08l-1.22-4.76c-0.27,0.01-0.48,0.02-0.62,0.02
			h-1.54l-1.02,4.74h-3.81L50.6,1.07h6.13c0.9,0,1.69,0.17,2.38,0.5c0.69,0.34,1.22,0.81,1.6,1.42c0.38,0.61,0.57,1.32,0.57,2.12
			C61.27,6.23,60.99,7.24,60.42,8.12z M52.97,7.87h2.01c0.44,0,0.84-0.11,1.2-0.32c0.36-0.21,0.65-0.49,0.86-0.82
			c0.21-0.33,0.31-0.66,0.31-0.98c0-0.39-0.13-0.69-0.39-0.9s-0.59-0.32-0.99-0.32h-2.3L52.97,7.87z"/>
		<path class="st1" d="M72.98,1.07h4.86l-6.71,6.32L75,15.94h-4.33l-2.49-5.78l-2.03,1.92l-0.83,3.86h-3.81l3.17-14.87h3.81
			L67.3,6.64L72.98,1.07z"/>
		<path class="st1" d="M79.73,15.21c-0.96-0.51-1.71-1.24-2.22-2.19c-0.52-0.95-0.78-2.07-0.78-3.37c0-1.44,0.37-2.82,1.11-4.14
			s1.77-2.4,3.07-3.22c1.3-0.82,2.75-1.23,4.34-1.23c1.31,0,2.44,0.26,3.41,0.77c0.97,0.51,1.71,1.25,2.23,2.21
			c0.52,0.96,0.78,2.09,0.78,3.4c0,1.43-0.37,2.8-1.11,4.11c-0.74,1.31-1.77,2.37-3.07,3.19c-1.3,0.81-2.75,1.22-4.35,1.22
			C81.83,15.98,80.69,15.72,79.73,15.21z M85.8,11.86c0.67-0.41,1.2-0.97,1.59-1.67c0.39-0.71,0.58-1.48,0.58-2.31
			c0-0.7-0.14-1.29-0.41-1.79c-0.27-0.5-0.65-0.87-1.12-1.13c-0.48-0.26-1.02-0.38-1.64-0.38c-0.8,0-1.53,0.21-2.2,0.62
			c-0.67,0.42-1.2,0.98-1.59,1.7c-0.39,0.72-0.59,1.5-0.59,2.35c0,0.68,0.14,1.26,0.41,1.75c0.27,0.49,0.65,0.85,1.12,1.1
			c0.48,0.25,1.02,0.37,1.63,0.37C84.39,12.47,85.12,12.27,85.8,11.86z"/>
	</g>
	<path class="st0" d="M0.02,10.75C0.02,10.75,0.02,10.75,0.02,10.75c0,0,0.23-1.84,0-4.68c-0.23-2.84,2.2-5.8,5.94-5.83
		c3.75-0.03,6.67,2.72,6.47,6.29c-0.21,3.57-2.46,5.77-5.47,6.18s-3.37,0.06-6.88,3.04c0,0,0,0,0,0c0,0,0.7-4.16,3.57-6.52
		c0.61-0.5,1.39-0.69,2.17-0.61c0.16,0.02,0.32,0.01,0.49-0.01c0.87-0.13,1.56-0.85,1.65-1.73c0.12-1.18-0.8-2.17-1.95-2.17
		c-0.74,0-1.38,0.41-1.72,1.01"/>
</g>
</svg>
