<?xml version="1.0" encoding="utf-8"?>
<!-- Generator: Adobe Illustrator 26.1.0, SVG Export Plug-In . SVG Version: 6.00 Build 0)  -->
<svg version="1.1" id="Calque_1" xmlns="http://www.w3.org/2000/svg" xmlns:xlink="http://www.w3.org/1999/xlink" x="0px" y="0px"
	 viewBox="0 0 298 247" style="enable-background:new 0 0 298 247;" xml:space="preserve">
<style type="text/css">
	.st0{clip-path:url(#SVGID_00000169534433189080707410000011516069563034804139_);}
	.st1{fill:#FFFFFF;}
	.st2{fill:#A5848A;}
	.st3{fill:#2F2E41;}
	.st4{fill:#CCCCCC;}
</style>
<g>
	<g>
		<g>
			<defs>
				<rect id="SVGID_1_" x="20" y="51" width="258" height="195"/>
			</defs>
			<clipPath id="SVGID_00000005256621656245778270000003772735069372505521_">
				<use xlink:href="#SVGID_1_"  style="overflow:visible;"/>
			</clipPath>
			<g style="clip-path:url(#SVGID_00000005256621656245778270000003772735069372505521_);">
				<path class="st1" d="M126.3,186.1c0,6.7-5.3,12.2-11.6,12.2c-6.5,0-11.6-5.4-11.6-12.2c0-0.2,0-0.3,0-0.4
					c0.1-6.7,5.4-12.1,11.9-12C121.3,173.8,126.5,179.4,126.3,186.1L126.3,186.1z"/>
				<path class="st1" d="M110.5,191.6l-3.4-4.5l0.8-0.6l2.8,3.6l10.8-8.8l0.6,0.8L110.5,191.6z"/>
				<path class="st2" d="M189.8,119.5c0.3,0.1,0.4,0.3,0.7,0.3l22.1-9.4l0.8-5.8l8.8-0.1l-0.5,13.4l-29.2,7.7
					c-0.1,0.2-0.2,0.4-0.3,0.6c-0.4,0.9-1.1,1.6-2,2.2c-0.9,0.5-1.8,0.8-2.8,0.7c-0.9,0-2-0.3-2.8-0.9c-0.8-0.6-1.4-1.4-1.7-2.3
					s-0.4-2-0.2-2.9c0.3-0.9,0.8-1.8,1.5-2.5s1.6-1.1,2.6-1.3C187.9,119,188.9,119.1,189.8,119.5L189.8,119.5z"/>
				<path class="st2" d="M225.4,240.4h-6l-2.8-23.3h8.9L225.4,240.4L225.4,240.4z"/>
				<path class="st3" d="M215.1,238.7h11.6v7.3h-19c0-2,0.8-3.8,2.2-5.2C211.3,239.4,213.1,238.7,215.1,238.7L215.1,238.7
					L215.1,238.7z"/>
				<path class="st2" d="M248.9,238.7l-6,0.6l-5.2-22.9l8.9-0.9L248.9,238.7z"/>
				<path class="st3" d="M238.4,238l11.6-1.1l0.7,7.3l-18.8,1.8c-0.2-1.9,0.4-3.9,1.6-5.3C234.7,239.1,236.5,238.1,238.4,238
					L238.4,238z"/>
				<path class="st2" d="M227.1,80c6.6,0,12.1-5.4,12.1-12.1s-5.4-12.1-12.1-12.1S215,61.3,215,67.9S220.4,80,227.1,80z"/>
				<path class="st3" d="M218,235.6c-0.5,0-1-0.2-1.4-0.5s-0.7-0.8-0.8-1.3c-3.1-17.3-13.3-74-13.5-75.6v-0.1v-4.2
					c0-0.2,0.1-0.3,0.2-0.4l1.4-1.9c0.1-0.1,0.2-0.2,0.3-0.3s0.2-0.1,0.3-0.1c7.7-0.3,32.9-1.4,34.1,0.1c1.2,1.6,0.8,6.1,0.7,7.1
					v0.1l11.3,72.4c0.1,0.6-0.1,1.2-0.4,1.6c-0.3,0.4-0.9,0.8-1.5,0.9l-7.1,1.1c-0.5,0.1-1,0-1.6-0.3c-0.5-0.3-0.8-0.7-0.9-1.2
					c-2.2-7-9.5-30.5-12.1-39.6c0-0.1-0.1-0.1-0.1-0.2c-0.1,0-0.1-0.1-0.2,0c-0.1,0-0.1,0-0.2,0.1c0,0.1-0.1,0.1-0.1,0.2
					c0.1,8.6,0.4,30.8,0.5,38.4v0.9c0,0.5-0.2,1.1-0.6,1.5c-0.3,0.4-0.9,0.7-1.5,0.7L218,235.6C218.2,235.6,218.1,235.7,218,235.6z"
					/>
				<path class="st1" d="M219.4,84.7c-2.1,1.3-3.4,3.5-4.1,5.9c-1.4,4.3-2.2,8.8-2.4,13.4l-0.8,13.5l-9.5,36c8.2,7,12.9,5.3,24-0.3
					c11-5.7,12.3,1.9,12.3,1.9l2.2-30.6l3.2-33.5c-0.7-0.9-1.6-1.6-2.4-2.3c-2.9-2.2-6.3-3.9-9.9-4.7c-3.6-0.8-7.3-0.7-11,0.2
					L219.4,84.7z"/>
				<path class="st2" d="M216.4,126.8c0.3,0.1,0.5,0.2,0.8,0.3l21.8-11l0.3-6l9-0.6l0.5,13.5l-29.2,9.7c-0.3,1-0.8,2-1.6,2.7
					s-1.7,1.1-2.8,1.3s-2.1,0-3-0.5s-1.7-1.2-2.2-2.2c-0.5-0.9-0.7-2-0.6-3s0.5-2,1.2-2.8c0.7-0.9,1.6-1.4,2.6-1.6
					C214.3,126.3,215.4,126.4,216.4,126.8L216.4,126.8z"/>
				<path class="st1" d="M244.3,91.2c5.3,1.9,6.3,22.4,6.3,22.4c-6.3-3.5-13.9,2.2-13.9,2.2s-1.6-5.3-3.5-12.3c-0.6-2-0.6-4.1-0.2-6
					c0.4-2,1.4-3.8,2.8-5.3C235.7,92.2,238.8,89.3,244.3,91.2z"/>
				<path class="st3" d="M238,71.1c-1.5-1.2-3.5,0.9-3.5,0.9l-1.2-10.9c0,0-7.5,0.9-12.3-0.3s-5.6,4.4-5.6,4.4
					c-0.3-2.2-0.3-4.5-0.2-6.8c0.3-2.7,4.2-5.4,11.1-7.2c6.9-1.8,10.5,6,10.5,6C241.6,59.7,239.4,72.3,238,71.1z"/>
				<path class="st4" d="M76.3,67c-0.3,0-0.6,0.1-0.8,0.3c-0.2,0.2-0.3,0.5-0.3,0.8s0.1,0.6,0.3,0.8c0.3,0.1,0.5,0.3,0.8,0.3h79.3
					c0.3,0,0.6-0.1,0.8-0.3c0.2-0.2,0.3-0.5,0.3-0.8s-0.1-0.6-0.3-0.8c-0.2-0.2-0.5-0.3-0.8-0.3H76.3L76.3,67z"/>
				<path class="st4" d="M76.3,73.4c-0.3,0-0.6,0.1-0.8,0.3c-0.2,0.2-0.3,0.5-0.3,0.8s0.1,0.6,0.3,0.8c0.2,0.2,0.5,0.3,0.8,0.3h50.1
					c0.2,0,0.3,0,0.4-0.1c0.2-0.1,0.3-0.2,0.3-0.3c0.1-0.1,0.2-0.3,0.3-0.3c0.1-0.2,0.1-0.3,0.1-0.4c0-0.2,0-0.3-0.1-0.4
					s-0.2-0.3-0.3-0.3s-0.3-0.2-0.3-0.3c-0.1-0.1-0.3-0.1-0.4-0.1H76.3z"/>
				<path class="st1" d="M154.6,58.6c0,2.7-2.1,4.7-4.6,4.7s-4.6-2.2-4.6-4.7c0-0.1,0-0.1,0-0.2c0.1-2.7,2.2-4.7,4.7-4.7
					C152.6,53.8,154.6,56,154.6,58.6L154.6,58.6z"/>
				<path class="st1" d="M148.4,60.8l-1.3-1.7l0.3-0.3l1,1.5l4.2-3.5L153,57L148.4,60.8z"/>
				<path class="st4" d="M76.3,106.8c-0.3,0-0.6,0.1-0.8,0.3c-0.2,0.2-0.3,0.5-0.3,0.8s0.1,0.6,0.3,0.8c0.2,0.2,0.5,0.3,0.8,0.3
					h79.3c0.3,0,0.6-0.1,0.8-0.3c0.2-0.2,0.3-0.5,0.3-0.8s-0.1-0.6-0.3-0.8c-0.2-0.2-0.5-0.3-0.8-0.3H76.3z"/>
				<path class="st4" d="M76.3,113.3c-0.3,0-0.6,0.1-0.8,0.3c-0.2,0.2-0.3,0.5-0.3,0.8s0.1,0.6,0.3,0.8c0.2,0.2,0.5,0.3,0.8,0.3
					h50.1c0.3,0,0.6-0.1,0.8-0.3s0.3-0.5,0.3-0.8s-0.1-0.6-0.3-0.8c-0.2-0.2-0.5-0.3-0.8-0.3H76.3z"/>
				<path class="st1" d="M154.3,98.5c0,2.7-2.1,4.7-4.6,4.7s-4.6-2.2-4.6-4.7c0-0.1,0-0.1,0-0.2c0.1-2.7,2.2-4.7,4.7-4.7
					C152.3,93.7,154.3,95.9,154.3,98.5L154.3,98.5z"/>
				<path class="st1" d="M148.1,100.6l-1.3-1.7l0.3-0.3l1,1.5l4.2-3.5l0.3,0.3L148.1,100.6z"/>
				<path class="st4" d="M76.3,146.6c-0.3,0-0.6,0.1-0.8,0.3c-0.2,0.2-0.3,0.5-0.3,0.8s0.1,0.6,0.3,0.8c0.2,0.2,0.5,0.3,0.8,0.3
					h79.3c0.3,0,0.6-0.1,0.8-0.3s0.3-0.5,0.3-0.8s-0.1-0.6-0.3-0.8s-0.5-0.3-0.8-0.3H76.3z"/>
				<path class="st4" d="M76.3,153.2c-0.3,0-0.6,0.1-0.8,0.3c-0.2,0.2-0.3,0.5-0.3,0.8s0.1,0.6,0.3,0.8c0.2,0.2,0.5,0.3,0.8,0.3
					h50.1c0.3,0,0.6-0.1,0.8-0.3c0.2-0.3,0.3-0.5,0.3-0.8s-0.1-0.6-0.3-0.8c-0.3-0.2-0.5-0.3-0.8-0.3H76.3z"/>
				<path class="st1" d="M154.3,138.3c0,2.7-2.1,4.7-4.6,4.7s-4.6-2.2-4.6-4.7c0-0.1,0-0.1,0-0.2c0.1-2.7,2.2-4.7,4.7-4.7
					C152.3,133.5,154.3,135.7,154.3,138.3L154.3,138.3z"/>
				<path class="st1" d="M148.1,140.5l-1.3-1.7l0.3-0.3l1,1.4l4.2-3.5l0.3,0.3L148.1,140.5z"/>
			</g>
		</g>
	</g>
</g>
</svg>
