<svg width="222" height="231" viewBox="0 0 222 231" fill="none" xmlns="http://www.w3.org/2000/svg">
<g clip-path="url(#clip0_218_158)">
<path d="M167.042 49.9471L56.4389 35.862C56.1409 35.8238 55.8409 35.8043 55.5405 35.8037C55.2444 35.8032 54.9486 35.8219 54.6549 35.8596C54.3617 35.8972 54.0713 35.954 53.7856 36.0295C53.4965 36.1066 53.2126 36.2023 52.9359 36.3159C52.6647 36.4271 52.4006 36.5546 52.145 36.6978C51.8858 36.8421 51.6354 37.0015 51.3951 37.1752C51.1493 37.3535 50.9138 37.5455 50.6897 37.7504C50.4584 37.9613 50.2386 38.1844 50.0312 38.4187C49.8183 38.6601 49.618 38.9121 49.4309 39.1739C49.242 39.439 49.0647 39.7148 48.899 40.0012C48.7334 40.2886 48.5796 40.5874 48.4378 40.8977C48.2961 41.208 48.1667 41.5288 48.0498 41.8601C47.9287 42.2025 47.8226 42.5526 47.7315 42.9103C47.6404 43.268 47.5642 43.6319 47.5031 44.002C47.4432 44.3718 47.3973 44.7477 47.3654 45.1296C47.3336 45.5115 47.3176 45.898 47.3176 46.2891C47.3189 46.6799 47.3348 47.0694 47.3654 47.4577C47.396 47.8459 47.4419 48.231 47.5031 48.6129C47.5649 48.9964 47.6413 49.3761 47.7324 49.7519C47.8236 50.1278 47.9297 50.4993 48.0507 50.8666C48.1676 51.2214 48.297 51.5681 48.4388 51.9068C48.5806 52.2457 48.7343 52.5754 48.9 52.8958C49.0656 53.2163 49.2429 53.5276 49.4319 53.8296C49.6205 54.1329 49.8206 54.4247 50.0321 54.7051C50.2437 54.9854 50.4632 55.2529 50.6907 55.5075C50.9182 55.7605 51.1533 55.9992 51.3961 56.2236C51.6388 56.4479 51.8888 56.6575 52.1459 56.8523C52.4002 57.0451 52.6642 57.2248 52.9368 57.3907C53.2114 57.558 53.4951 57.7099 53.7865 57.8457C54.0693 57.9773 54.3596 58.0922 54.6559 58.1898C54.946 58.2855 55.2418 58.3635 55.5414 58.4233C55.8381 58.4823 56.1382 58.523 56.4399 58.545L167.043 66.6263C167.365 66.6497 167.688 66.6174 167.999 66.5308C168.157 66.4869 168.311 66.4301 168.46 66.3609C168.616 66.2887 168.765 66.2049 168.908 66.1103C169.053 66.0144 169.191 65.9091 169.322 65.7952C169.459 65.6757 169.59 65.5481 169.712 65.4133C169.841 65.2708 169.963 65.1217 170.077 64.9665C170.194 64.8067 170.307 64.6365 170.415 64.4557C170.524 64.275 170.626 64.0864 170.723 63.89C170.819 63.6937 170.91 63.4897 170.994 63.2781C171.078 63.0667 171.156 62.8481 171.228 62.6222C171.3 62.3962 171.365 62.1636 171.424 61.9243C171.486 61.6767 171.539 61.4246 171.584 61.1681C171.629 60.9116 171.668 60.6513 171.7 60.3871C171.73 60.123 171.754 59.8553 171.769 59.5842C171.784 59.3131 171.792 59.0389 171.792 58.7617C171.791 58.4848 171.783 58.2092 171.769 57.9349C171.754 57.6606 171.731 57.3883 171.7 57.1181C171.669 56.8479 171.63 56.58 171.584 56.3142C171.538 56.0485 171.485 55.7856 171.424 55.5256C171.365 55.2742 171.3 55.0285 171.228 54.7886C171.157 54.5518 171.079 54.3185 170.994 54.0888C170.909 53.859 170.818 53.6362 170.723 53.4204C170.626 53.205 170.524 52.9959 170.415 52.7932C170.307 52.5905 170.194 52.3976 170.077 52.2146C169.959 52.0316 169.838 51.8582 169.712 51.6943C169.586 51.5304 169.456 51.377 169.322 51.2341C169.191 51.0941 169.053 50.9612 168.908 50.836C168.766 50.7133 168.617 50.5996 168.46 50.4956C168.313 50.3974 168.159 50.3096 167.999 50.233C167.846 50.1598 167.688 50.0986 167.526 50.0497C167.368 50.0024 167.206 49.968 167.042 49.9471" fill="#8800FF"/>
<path d="M167.042 81.7146L56.4389 79.0686C55.8389 79.0538 55.2395 79.1149 54.6549 79.2505C54.36 79.319 54.0697 79.4059 53.7856 79.5106C53.4951 79.6176 53.2114 79.7419 52.9359 79.883C52.6638 80.0222 52.3998 80.1765 52.1449 80.345C51.8852 80.5169 51.6349 80.7025 51.3951 80.9012C51.1491 81.1051 50.9136 81.3215 50.6897 81.5494C50.4619 81.7811 50.2424 82.0274 50.0312 82.2884C49.8199 82.55 49.6198 82.8226 49.4309 83.1061C49.242 83.3897 49.0647 83.6837 48.899 83.9883C48.7333 84.2928 48.5796 84.6076 48.4378 84.9325C48.296 85.2574 48.1667 85.5916 48.0498 85.935C47.9287 86.2905 47.8226 86.6517 47.7315 87.0186C47.6404 87.3855 47.5642 87.7573 47.503 88.1338C47.4432 88.5102 47.3973 88.891 47.3654 89.2761C47.3336 89.6612 47.3176 90.0493 47.3176 90.4404C47.3189 90.8315 47.3348 91.2195 47.3654 91.6042C47.396 91.989 47.4419 92.3694 47.503 92.7456C47.5649 93.1198 47.6413 93.4901 47.7324 93.8564C47.8236 94.2227 47.9296 94.5833 48.0507 94.9381C48.1676 95.2825 48.297 95.6166 48.4388 95.9406C48.5806 96.2646 48.7343 96.5784 48.9 96.882C49.0656 97.1856 49.2429 97.4785 49.4319 97.7608C49.6205 98.0421 49.8206 98.3126 50.0321 98.5723C50.2437 98.832 50.4632 99.0769 50.6907 99.307C50.9146 99.5336 51.15 99.7486 51.3961 99.951C51.6359 100.148 51.8862 100.332 52.1459 100.502C52.4008 100.669 52.6648 100.822 52.9368 100.959C53.2124 101.099 53.4961 101.221 53.7865 101.326C54.0707 101.429 54.3611 101.514 54.6559 101.581C54.9477 101.647 55.2435 101.695 55.5414 101.724C55.84 101.752 56.1401 101.762 56.4399 101.753L167.042 98.3919C167.205 98.3869 167.367 98.3682 167.526 98.336C167.687 98.3034 167.845 98.2575 167.999 98.199C168.158 98.1383 168.312 98.0655 168.46 97.9813C168.616 97.8927 168.766 97.7935 168.908 97.6844C169.053 97.5733 169.191 97.4538 169.322 97.3264C169.459 97.1927 169.59 97.0519 169.712 96.9044C169.837 96.7542 169.959 96.5927 170.077 96.4199C170.194 96.2471 170.307 96.0652 170.415 95.8743C170.524 95.682 170.626 95.4828 170.723 95.2766C170.819 95.0704 170.91 94.8571 170.994 94.6369C171.078 94.4132 171.156 94.1855 171.228 93.9538C171.3 93.7221 171.365 93.4835 171.424 93.2378C171.486 92.9863 171.539 92.73 171.584 92.4687C171.629 92.2075 171.668 91.9432 171.7 91.6758C171.73 91.4075 171.754 91.137 171.769 90.8643C171.784 90.5916 171.792 90.3166 171.792 90.0394C171.791 89.7648 171.783 89.4904 171.769 89.2164C171.754 88.9424 171.731 88.6719 171.7 88.4049C171.669 88.1369 171.63 87.873 171.584 87.613C171.538 87.353 171.485 87.0957 171.424 86.8411C171.365 86.5954 171.299 86.3561 171.227 86.1231C171.156 85.8901 171.078 85.6639 170.994 85.4443C170.91 85.2247 170.82 85.012 170.723 84.806C170.627 84.6001 170.524 84.4017 170.416 84.2108C170.307 84.0195 170.194 83.8381 170.077 83.6666C169.96 83.495 169.838 83.3342 169.712 83.184C169.59 83.0372 169.46 82.8972 169.322 82.7644C169.192 82.6379 169.053 82.5193 168.909 82.4092C168.766 82.301 168.617 82.2027 168.461 82.1151C168.313 82.0322 168.158 81.9607 167.999 81.9013C167.845 81.8437 167.687 81.7988 167.526 81.7671C167.367 81.736 167.205 81.7184 167.042 81.7146Z" fill="#E4E4E4"/>
<path d="M167.042 111.496L56.4389 119.576C56.1372 119.598 55.8371 119.638 55.5405 119.697C55.2408 119.757 54.9451 119.835 54.6549 119.931C54.3586 120.028 54.0684 120.143 53.7856 120.275C53.4941 120.411 53.2104 120.563 52.9359 120.73C52.6632 120.896 52.3993 121.076 52.145 121.268C51.8875 121.465 51.6376 121.674 51.3951 121.897C51.1527 122.121 50.9175 122.359 50.6897 122.613C50.4619 122.867 50.2424 123.134 50.0312 123.416C49.8199 123.698 49.6199 123.99 49.4309 124.292C49.242 124.594 49.0647 124.905 48.899 125.226C48.7334 125.546 48.5796 125.876 48.4378 126.215C48.2961 126.553 48.1667 126.9 48.0498 127.255C47.9287 127.622 47.8226 127.993 47.7315 128.37C47.6404 128.746 47.5642 129.125 47.5031 129.507C47.4432 129.89 47.3973 130.275 47.3654 130.663C47.3336 131.051 47.3176 131.44 47.3176 131.831C47.3189 132.223 47.3348 132.609 47.3654 132.991C47.396 133.373 47.4419 133.749 47.5031 134.119C47.5649 134.49 47.6413 134.854 47.7324 135.211C47.8236 135.568 47.9297 135.918 48.0507 136.261C48.1676 136.593 48.297 136.914 48.4388 137.224C48.5806 137.534 48.7343 137.833 48.9 138.12C49.0656 138.408 49.2429 138.683 49.4319 138.948C49.6189 139.209 49.8193 139.461 50.0321 139.703C50.2395 139.937 50.4594 140.16 50.6907 140.371C50.9147 140.576 51.1502 140.768 51.3961 140.946C51.6364 141.12 51.8868 141.279 52.1459 141.424C52.4016 141.567 52.6657 141.694 52.9368 141.806C53.2136 141.919 53.4974 142.015 53.7865 142.092C54.0723 142.168 54.3627 142.224 54.6559 142.262C54.9495 142.3 55.2453 142.318 55.5414 142.318C55.8418 142.317 56.1419 142.298 56.4399 142.26L167.042 128.178C167.206 128.157 167.368 128.122 167.526 128.075C167.688 128.026 167.846 127.965 167.999 127.892C168.159 127.815 168.313 127.727 168.46 127.629C168.617 127.525 168.766 127.412 168.908 127.289C169.053 127.164 169.191 127.031 169.322 126.891C169.454 126.748 169.584 126.594 169.712 126.431C169.837 126.267 169.959 126.094 170.077 125.91C170.194 125.727 170.307 125.534 170.415 125.332C170.524 125.131 170.626 124.921 170.723 124.704C170.819 124.487 170.91 124.265 170.994 124.036C171.078 123.807 171.156 123.572 171.228 123.332C171.3 123.092 171.365 122.846 171.424 122.595C171.486 122.335 171.539 122.072 171.584 121.806C171.629 121.54 171.668 121.272 171.7 121.002C171.73 120.732 171.754 120.46 171.769 120.185C171.784 119.911 171.792 119.635 171.792 119.358C171.79 119.082 171.783 118.809 171.768 118.538C171.754 118.267 171.731 117.999 171.699 117.735C171.668 117.47 171.63 117.209 171.584 116.952C171.538 116.696 171.485 116.444 171.424 116.196C171.365 115.957 171.299 115.724 171.228 115.498C171.157 115.273 171.079 115.054 170.994 114.842C170.909 114.631 170.819 114.427 170.723 114.231C170.626 114.036 170.523 113.848 170.414 113.666C170.306 113.485 170.193 113.315 170.076 113.155C169.962 113 169.84 112.851 169.711 112.709C169.589 112.574 169.458 112.446 169.321 112.327C169.19 112.213 169.052 112.108 168.907 112.012C168.764 111.917 168.615 111.833 168.459 111.761C168.311 111.692 168.156 111.635 167.998 111.591C167.687 111.505 167.364 111.472 167.042 111.496" fill="#E4E4E4"/>
<path d="M106.757 112.976C107.458 114.14 108.562 115.006 109.86 115.41C111.157 115.814 112.559 115.728 113.797 115.169C115.036 114.609 116.025 113.615 116.578 112.374C117.131 111.134 117.209 109.734 116.797 108.44L138.233 64.4505L127.972 58.2373L109.459 104.963C109.389 104.99 109.319 105.019 109.25 105.049C109.182 105.079 109.113 105.111 109.045 105.144C108.977 105.176 108.91 105.211 108.842 105.247C108.775 105.283 108.709 105.321 108.643 105.361C107.382 106.121 106.475 107.35 106.121 108.778C105.768 110.206 105.996 111.716 106.757 112.976L106.757 112.976Z" fill="#9E616A"/>
<path d="M134.141 81.4129L118.912 77.5141C118.912 77.5141 119.409 76.3915 120.218 74.5315C121.026 72.6716 122.155 70.078 123.425 67.1333C124.695 64.1887 126.104 60.8985 127.48 57.6462C128.857 54.3939 130.195 51.1806 131.323 48.3954C132.45 45.6101 133.731 43.942 135.018 43.0071C136.083 42.1984 137.425 41.8421 138.752 42.0156C139.783 42.169 140.769 42.5438 141.641 43.1142C142.054 43.3709 142.442 43.6652 142.801 43.9935L146.332 50.4072L134.141 81.4129Z" fill="#CCCCCC"/>
<path d="M12.2685 77.9293C11.8997 77.9565 11.5328 78.0043 11.1694 78.0725C10.8036 78.1409 10.4419 78.2296 10.0859 78.338C9.72458 78.4482 9.36944 78.5779 9.02212 78.7265C8.66665 78.8786 8.31939 79.0491 7.98173 79.2373C7.65134 79.4229 7.32843 79.6246 7.01302 79.8426C6.6976 80.0606 6.39125 80.2948 6.094 80.5453C5.79706 80.7951 5.50889 81.0615 5.22947 81.3444C4.95005 81.6273 4.68085 81.9257 4.42182 82.2395C4.1628 82.5533 3.91731 82.8783 3.68536 83.2147C3.45341 83.5511 3.23581 83.8977 3.03254 84.2544C2.83118 84.6118 2.64288 84.9789 2.46765 85.3557C2.29242 85.7325 2.13312 86.118 1.98975 86.5124C1.84033 86.9213 1.70954 87.3345 1.59739 87.7521C1.48524 88.1696 1.39173 88.5906 1.31686 89.0152C1.24167 89.4397 1.18528 89.8671 1.14768 90.2974C1.11009 90.7277 1.0913 91.1597 1.09131 91.5934C1.09131 92.0272 1.1101 92.4554 1.14768 92.878C1.18527 93.3007 1.24166 93.7168 1.31686 94.1264C1.39173 94.5359 1.48524 94.9382 1.59739 95.3331C1.70954 95.7281 1.83985 96.1149 1.98832 96.4936C2.13296 96.8593 2.29226 97.213 2.46622 97.5548C2.63817 97.8931 2.82702 98.2226 3.03206 98.542C3.23389 98.8553 3.4518 99.1581 3.68489 99.449C3.91576 99.7381 4.16174 100.015 4.42181 100.278C4.67759 100.537 4.9472 100.782 5.22947 101.011C5.50588 101.236 5.79466 101.446 6.09447 101.638C6.68615 102.019 7.31953 102.33 7.9822 102.566C8.66152 102.809 9.36748 102.969 10.085 103.044C10.4449 103.081 10.8066 103.097 11.1684 103.091C11.536 103.086 11.9029 103.06 12.2676 103.014C12.6355 102.967 13.0005 102.9 13.361 102.813C13.7226 102.725 14.0792 102.618 14.4291 102.492C14.7831 102.365 15.13 102.219 15.4686 102.054C15.8135 101.887 16.1498 101.703 16.476 101.502C16.7937 101.304 17.103 101.091 17.4041 100.865C17.7052 100.638 17.9969 100.397 18.2791 100.14C18.5614 99.8837 18.834 99.6132 19.0968 99.3287C19.3597 99.0442 19.6123 98.7457 19.8548 98.4332C20.0988 98.121 20.3286 97.7994 20.5439 97.4684C20.7593 97.1374 20.961 96.7977 21.149 96.4492C21.337 96.1008 21.5109 95.7442 21.6708 95.3795C21.8308 95.0148 21.9765 94.6424 22.1081 94.2624C22.2445 93.8691 22.3638 93.4724 22.4661 93.0723C22.5684 92.6723 22.6537 92.2694 22.7222 91.8637C22.7904 91.4576 22.8417 91.0494 22.8761 90.6392C22.9105 90.229 22.9277 89.817 22.9277 89.4033C22.9274 88.9896 22.9102 88.581 22.8761 88.1774C22.842 87.7739 22.7907 87.3761 22.7222 86.984C22.6541 86.5926 22.5687 86.2069 22.4661 85.8269C22.3635 85.4469 22.2442 85.0741 22.1081 84.7084C21.9759 84.3545 21.8301 84.0113 21.6708 83.6787C21.5093 83.3471 21.3346 83.0254 21.1466 82.7135C20.7745 82.0971 20.3417 81.5194 19.8548 80.9888C19.6158 80.7278 19.3635 80.4794 19.0988 80.2445C18.838 80.0141 18.5651 79.7979 18.2811 79.5968C17.9997 79.3976 17.7076 79.2142 17.406 79.0473C17.1046 78.8805 16.7941 78.7307 16.476 78.5986C15.8192 78.3253 15.1323 78.1306 14.4296 78.0186C14.076 77.9623 13.7193 77.9267 13.3615 77.9121C12.997 77.8974 12.6319 77.9035 12.2681 77.9303" fill="#E4E4E4"/>
<path d="M12.2685 122.802C11.8997 122.829 11.5328 122.877 11.1694 122.945C10.8036 123.014 10.4419 123.102 10.0859 123.211C9.72458 123.321 9.36944 123.45 9.02212 123.599C8.66665 123.751 8.31939 123.922 7.98173 124.11C7.65134 124.295 7.32843 124.497 7.01302 124.715C6.6976 124.933 6.39125 125.167 6.094 125.418C5.79706 125.668 5.50889 125.934 5.22947 126.217C4.95005 126.5 4.68085 126.798 4.42182 127.112C4.1628 127.426 3.91731 127.751 3.68536 128.087C3.45341 128.424 3.23581 128.77 3.03254 129.127C2.83118 129.484 2.64288 129.851 2.46765 130.228C2.29242 130.605 2.13312 130.991 1.98975 131.385C1.84033 131.794 1.70954 132.207 1.59739 132.625C1.48524 133.042 1.39173 133.463 1.31686 133.888C1.24167 134.312 1.18528 134.74 1.14768 135.17C1.11009 135.6 1.0913 136.032 1.09131 136.466C1.09131 136.9 1.1101 137.328 1.14768 137.751C1.18527 138.173 1.24166 138.589 1.31686 138.999C1.39173 139.408 1.48524 139.811 1.59739 140.206C1.70954 140.601 1.83985 140.987 1.98832 141.366C2.13296 141.732 2.29226 142.086 2.46622 142.427C2.63817 142.766 2.82702 143.095 3.03206 143.415C3.23389 143.728 3.4518 144.031 3.68489 144.322C3.91576 144.611 4.16174 144.887 4.42181 145.151C4.67759 145.41 4.9472 145.654 5.22947 145.884C5.50588 146.109 5.79466 146.318 6.09447 146.511C6.68615 146.891 7.31953 147.202 7.9822 147.439C8.66152 147.681 9.36748 147.841 10.085 147.916C10.4449 147.953 10.8066 147.969 11.1684 147.964C11.536 147.959 11.9029 147.933 12.2676 147.886C12.6355 147.839 13.0005 147.772 13.361 147.685C13.7226 147.598 14.0792 147.491 14.4291 147.365C14.7831 147.237 15.13 147.091 15.4686 146.927C15.8135 146.76 16.1498 146.575 16.476 146.374C16.7937 146.176 17.103 145.964 17.4041 145.737C17.7052 145.511 17.9969 145.269 18.2791 145.013C18.5614 144.756 18.834 144.486 19.0968 144.201C19.3597 143.917 19.6123 143.618 19.8548 143.306C20.0988 142.994 20.3286 142.672 20.5439 142.341C20.7593 142.01 20.961 141.67 21.149 141.322C21.337 140.973 21.5109 140.617 21.6708 140.252C21.8308 139.887 21.9765 139.515 22.1081 139.135C22.2445 138.742 22.3638 138.345 22.4661 137.945C22.5684 137.545 22.6537 137.142 22.7222 136.736C22.7904 136.33 22.8417 135.922 22.8761 135.512C22.9105 135.102 22.9277 134.69 22.9277 134.276C22.9274 133.862 22.9102 133.454 22.8761 133.05C22.842 132.646 22.7907 132.249 22.7222 131.857C22.6541 131.465 22.5687 131.079 22.4661 130.699C22.3635 130.319 22.2442 129.947 22.1081 129.581C21.9759 129.227 21.8301 128.884 21.6708 128.551C21.5093 128.22 21.3346 127.898 21.1466 127.586C20.7745 126.97 20.3417 126.392 19.8548 125.861C19.6158 125.6 19.3635 125.352 19.0988 125.117C18.838 124.887 18.5651 124.67 18.2811 124.469C17.9997 124.27 17.7076 124.087 17.406 123.92C17.1046 123.753 16.7941 123.603 16.476 123.471C15.8192 123.198 15.1323 123.003 14.4296 122.891C14.076 122.835 13.7193 122.799 13.3615 122.785C12.997 122.77 12.6319 122.776 12.2681 122.803" fill="#E4E4E4"/>
<path d="M12.2704 29.3182C11.9037 29.3093 11.5367 29.3212 11.1713 29.354C10.8073 29.3866 10.4456 29.4402 10.0879 29.5144C9.72807 29.5895 9.37287 29.6851 9.02404 29.8008C8.66983 29.9179 8.32249 30.0548 7.98364 30.2108C7.65198 30.3635 7.32862 30.5335 7.01493 30.7202C6.69814 30.9088 6.39139 31.1137 6.09591 31.3341C5.79567 31.558 5.50697 31.797 5.23091 32.0501C4.95022 32.3076 4.68053 32.5805 4.42182 32.8688C4.1628 33.1575 3.91731 33.4588 3.68536 33.773C3.45341 34.0871 3.23581 34.4126 3.03254 34.7496C2.83023 35.0911 2.64145 35.441 2.46622 35.7994C2.29099 36.1577 2.1317 36.5278 1.98832 36.9097C1.83985 37.3034 1.70954 37.7036 1.59739 38.1103C1.48524 38.517 1.39173 38.929 1.31686 39.3462C1.24167 39.7647 1.18528 40.1867 1.14768 40.6122C1.11009 41.0377 1.0913 41.4673 1.09131 41.901C1.09131 42.3342 1.1101 42.7638 1.14768 43.1899C1.18527 43.6161 1.24166 44.0376 1.31686 44.4545C1.39173 44.8714 1.48524 45.2827 1.59739 45.6885C1.70954 46.0942 1.83985 46.4936 1.98832 46.8867C2.13296 47.2663 2.29226 47.6355 2.46622 47.9942C2.64146 48.3515 2.8307 48.6983 3.03395 49.0343C3.2372 49.3704 3.45482 49.6946 3.68678 50.0067C3.9184 50.3199 4.16388 50.6197 4.42323 50.9061C4.68258 51.1925 4.9518 51.463 5.23089 51.7176C5.5055 51.9698 5.79277 52.2078 6.09159 52.4308C6.3871 52.6492 6.69387 52.8521 7.0106 53.0385C7.32435 53.2232 7.64772 53.3912 7.97932 53.5416C8.31825 53.6955 8.66561 53.8302 9.01972 53.945C9.71654 54.1702 10.437 54.3144 11.1669 54.3746C11.8978 54.4352 12.6332 54.4129 13.3591 54.3083C13.719 54.2563 14.0756 54.184 14.4272 54.0916C14.7797 53.9988 15.1268 53.8862 15.4667 53.7545C15.8105 53.6214 16.1468 53.4695 16.4741 53.2996C16.7932 53.134 17.1036 52.9522 17.4041 52.7549C17.7063 52.5563 17.9984 52.3427 18.2791 52.1148C18.5614 51.8856 18.834 51.6416 19.0968 51.3825C19.3597 51.1235 19.6123 50.8494 19.8548 50.5605C20.0988 50.2715 20.3285 49.972 20.5439 49.6621C20.7593 49.3521 20.961 49.0319 21.149 48.7016C21.3376 48.3713 21.5115 48.0316 21.6708 47.6824C21.8301 47.3333 21.9759 46.9758 22.1081 46.6098C22.2445 46.2298 22.3638 45.8447 22.4661 45.4546C22.5683 45.0644 22.6537 44.6698 22.7222 44.2707C22.7904 43.87 22.8417 43.4662 22.8761 43.0591C22.9105 42.6521 22.9277 42.2417 22.9277 41.828C22.9274 41.4146 22.9102 41.0044 22.8761 40.5974C22.842 40.1903 22.7907 39.7876 22.7222 39.3892C22.654 38.9904 22.5687 38.5961 22.4661 38.2062C22.3635 37.8164 22.2442 37.4319 22.1081 37.0529C21.9759 36.6866 21.8301 36.3294 21.6708 35.9812C21.5115 35.6331 21.3368 35.294 21.1466 34.964C20.9586 34.6368 20.7569 34.3186 20.5415 34.0092C20.3261 33.6999 20.0972 33.402 19.8548 33.1156C19.6139 32.8295 19.3619 32.5576 19.0987 32.2998C18.8356 32.042 18.563 31.7997 18.281 31.5728C18.0004 31.3462 17.7085 31.134 17.4065 30.9369C17.106 30.7414 16.7955 30.5615 16.4765 30.398C16.1492 30.2301 15.8128 30.0803 15.469 29.9492C15.1291 29.8197 14.782 29.7094 14.4296 29.6189C14.0779 29.5287 13.7212 29.4585 13.3615 29.4089C12.999 29.359 12.6339 29.3296 12.268 29.321L12.2704 29.3182ZM12.268 28.1267C13.8734 28.1706 15.448 28.5776 16.8731 29.3172C18.2894 30.0569 19.5447 31.0699 20.5664 32.2974C21.6344 33.5767 22.4661 35.0355 23.0228 36.6056C24.215 39.9852 24.215 43.6703 23.0228 47.0499C22.4656 48.6246 21.6339 50.0885 20.5664 51.3739C19.5445 52.6073 18.2894 53.6274 16.8727 54.3761C15.4494 55.1245 13.8751 55.5418 12.2676 55.5967C10.6501 55.6497 9.04224 55.3295 7.5688 54.6611C6.08131 53.9805 4.75058 53.0003 3.66001 51.7821C2.50193 50.492 1.59555 48.9969 0.987573 47.3741C-0.329191 43.8411 -0.329191 39.9529 0.987573 36.4199C1.59614 34.7922 2.50235 33.2916 3.66001 31.9948C4.75025 30.7697 6.08063 29.7812 7.5688 29.0905C9.0411 28.4126 10.6498 28.0822 12.2704 28.1247L12.268 28.1267Z" fill="#8800FF"/>
<path d="M12.2695 45.238L8.505 37.4045L9.39869 36.823L12.4993 43.2584L25.5184 27.9731L26.3065 28.8119L12.2695 45.238Z" fill="#8800FF"/>
<path d="M149.273 199.894L139.954 199.857L142.959 224.181L149.273 224.212V199.894Z" fill="#9E616A"/>
<path d="M150.883 230.332L130.535 230.225V229.968C130.535 229.447 130.586 228.926 130.687 228.414C130.887 227.405 131.286 226.445 131.86 225.591C132.444 224.725 133.191 223.982 134.061 223.403C134.919 222.834 135.882 222.439 136.894 222.244C137.407 222.145 137.928 222.098 138.45 222.101L150.883 222.162V230.332Z" fill="#2F2E41"/>
<path d="M119.434 199.778L110.142 199.742L113.137 224.032L119.434 224.064V199.778Z" fill="#9E616A"/>
<path d="M121.04 230.175L100.745 230.068V229.811C100.745 229.29 100.796 228.771 100.897 228.26C101.097 227.252 101.494 226.293 102.067 225.44C102.649 224.575 103.395 223.832 104.263 223.255C105.119 222.686 106.079 222.293 107.088 222.098C107.6 222 108.12 221.952 108.641 221.955L121.04 222.015V230.175Z" fill="#2F2E41"/>
<path d="M119.04 100.363L103.414 158.612L109.133 214.448L121.798 214.797L119.04 164.38L134.839 139.22L138.266 215.14L149.754 214.329L156.144 149.053C158.315 143.956 159.906 138.632 160.89 133.181C161.662 128.902 162.038 124.561 162.012 120.213C161.999 117.286 161.774 114.364 161.339 111.469C161.183 110.39 160.972 109.32 160.707 108.263L156.048 103.545L119.04 100.363Z" fill="#2F2E41"/>
<path d="M139.743 110.105C137.115 110.105 134.649 110.021 132.414 109.854C130.13 109.698 127.858 109.399 125.611 108.96C123.698 108.603 121.835 108.017 120.063 107.215C118.636 106.599 117.395 105.621 116.464 104.378L116.357 104.223L120.629 76.4585L125.234 45.2401C125.537 43.1742 126.591 41.2918 128.193 39.9512C129.796 38.6106 131.836 37.9054 133.925 37.9699L148.35 38.4114C149.431 38.4445 150.496 38.6942 151.479 39.1458C152.462 39.5973 153.345 40.2414 154.074 41.0399C154.803 41.8384 155.365 42.7751 155.725 43.7944C156.086 44.8138 156.237 45.895 156.172 46.9739L154.278 78.021L161.263 108.645L160.768 108.714C160.569 108.741 159.803 108.842 158.602 108.977C157.032 109.153 155.43 109.312 153.839 109.449C151.588 109.643 149.385 109.795 147.292 109.902C144.637 110.037 142.093 110.103 139.743 110.105Z" fill="#CCCCCC"/>
<path d="M131.738 32.4531C131.735 32.4531 131.731 32.4531 131.727 32.4531C131.424 32.4529 131.125 32.3931 130.845 32.2773C130.566 32.1614 130.312 31.9917 130.098 31.7778C129.884 31.564 129.714 31.3101 129.599 31.0307C129.483 30.7514 129.424 30.452 129.424 30.1497V17.3038C129.422 15.0024 129.883 12.7239 130.78 10.604C132.536 6.46706 135.823 3.16674 139.956 1.39083C142.569 0.271082 145.42 -0.183735 148.253 0.0671052C151.085 0.317946 153.812 1.26661 156.187 2.82815C158.563 4.3897 160.514 6.51537 161.865 9.01482C163.216 11.5143 163.926 14.3095 163.931 17.1501V30.0156C163.931 30.3252 163.869 30.6318 163.748 30.9169C163.511 31.4731 163.068 31.9164 162.512 32.1542C162.227 32.2759 161.92 32.3391 161.609 32.3399L131.737 32.4531H131.738Z" fill="#2F2E41"/>
<path d="M154.468 12.898C155.671 15.0933 156.196 17.5956 155.976 20.0888C155.757 22.5819 154.802 24.9542 153.234 26.906C151.665 28.8577 149.553 30.3014 147.164 31.0546C144.774 31.8079 142.215 31.837 139.809 31.1382C138.216 30.6809 136.729 29.9124 135.435 28.8771C134.142 27.8418 133.067 26.5604 132.272 25.1072C131.072 22.9128 130.549 20.4126 130.769 17.9217C130.989 15.4308 131.943 13.0607 133.509 11.1104C135.076 9.16007 137.186 7.71675 139.573 6.96243C141.959 6.20811 144.516 6.17656 146.921 6.87176C148.516 7.32738 150.004 8.09472 151.299 9.12928C152.595 10.1638 153.672 11.445 154.468 12.8985V12.898Z" fill="#9E616A"/>
<path d="M125.345 18.3492C125.343 16.529 125.708 14.7271 126.418 13.0505C127.806 9.77917 130.406 7.1696 133.674 5.76585C135.35 5.04827 137.154 4.67488 138.978 4.6679L141.552 4.65501C141.581 4.65485 141.61 4.65477 141.639 4.65479C143.421 4.65588 145.186 5.00763 146.832 5.68996C148.479 6.37229 149.974 7.37182 151.234 8.6315C152.493 9.89118 153.492 11.3863 154.173 13.0316C154.854 14.6768 155.204 16.44 155.203 18.2203V18.4776L149.758 18.4996L147.901 13.3182L147.53 18.5096L144.717 18.522L143.781 15.908L143.593 18.5254L125.347 18.607L125.345 18.3492Z" fill="#2F2E41"/>
<path d="M103.424 45.3729C102.586 45.5777 101.802 45.9612 101.127 46.4972C100.599 46.9143 100.148 47.4198 99.793 47.991C99.0935 49.1216 98.7852 50.4505 98.9158 51.7731C98.9816 52.4413 99.1631 53.093 99.452 53.6992C99.8082 54.4547 100.321 55.1262 100.956 55.6692C101.591 56.2123 102.334 56.6146 103.136 56.8496C103.939 57.0846 104.782 57.147 105.61 57.0326C106.438 56.9182 107.232 56.6297 107.941 56.186C107.993 56.1523 108.045 56.1182 108.096 56.0835C108.147 56.0488 108.197 56.0135 108.247 55.9774C108.296 55.9413 108.345 55.9045 108.393 55.8673C108.441 55.83 108.489 55.7922 108.536 55.7538L138.583 66.4357C139.507 66.7642 140.514 66.7838 141.45 66.4916C142.387 66.1994 143.203 65.6111 143.776 64.8155L150.9 54.9636L142.287 49.1706L137.768 54.2991L110.27 48.8352C110.24 48.764 110.209 48.6932 110.176 48.6227C110.144 48.5523 110.111 48.4821 110.076 48.4123C110.04 48.3426 110.004 48.2734 109.966 48.2044C109.928 48.1355 109.888 48.0671 109.846 47.9993C109.19 46.9405 108.216 46.1162 107.062 45.6444C105.908 45.1726 104.635 45.0776 103.424 45.3729Z" fill="#9E616A"/>
<path d="M138.253 51.0649C139.151 49.9444 140.408 48.4896 141.685 47.0467C142.962 45.6038 144.257 44.1737 145.235 43.1038C146.212 42.034 146.87 41.325 146.87 41.325C147.772 39.9624 149.119 38.9538 150.681 38.4705C152.243 37.9871 153.925 38.0589 155.44 38.6735C156.955 39.2881 158.211 40.4077 158.993 41.8421C159.776 43.2766 160.037 44.9373 159.733 46.5424C159.559 47.4664 159.2 48.3457 158.677 49.1274C158.677 49.1274 157.696 50.4087 156.217 52.3212C154.737 54.2338 152.757 56.7797 150.76 59.3107C148.763 61.8418 146.747 64.3597 145.192 66.2184C143.637 68.077 142.543 69.2777 142.389 69.1749L136.966 53.0722C136.812 52.9694 137.354 52.1853 138.253 51.0649Z" fill="#CCCCCC"/>
<path d="M141.472 32.0482C141.386 32.4635 141.419 32.8944 141.567 33.2918C141.641 33.4952 141.744 33.6872 141.871 33.8622C141.98 34.0114 142.107 34.1471 142.248 34.2666C142.665 34.6193 143.195 34.8117 143.743 34.8093C143.777 34.809 143.811 34.808 143.845 34.8065C143.879 34.8049 143.913 34.8025 143.947 34.7993C143.981 34.7964 144.016 34.7926 144.05 34.7878C144.084 34.7831 144.118 34.7777 144.153 34.7716L146.085 34.4207L148.747 28.7401V33.9434L157.534 32.3633V10.2827L142.803 10.3534L143.168 10.7758C144.376 12.1934 145.17 13.9166 145.462 15.7557C145.747 17.6185 145.711 19.5165 145.355 21.3672C145.009 23.2398 144.484 25.075 143.787 26.8473C143.178 28.4175 142.478 29.9512 141.692 31.441C141.59 31.6321 141.516 31.8365 141.472 32.0482Z" fill="#2F2E41"/>
</g>
<defs>
<clipPath id="clip0_218_158">
<rect width="222" height="231" fill="white"/>
</clipPath>
</defs>
</svg>
