<?xml version="1.0" encoding="utf-8"?>
<!-- Generator: Adobe Illustrator 26.1.0, SVG Export Plug-In . SVG Version: 6.00 Build 0)  -->
<svg version="1.1" id="Calque_1" xmlns="http://www.w3.org/2000/svg" xmlns:xlink="http://www.w3.org/1999/xlink" x="0px" y="0px"
	 viewBox="0 0 298 247" style="enable-background:new 0 0 298 247;" xml:space="preserve">
<style type="text/css">
	.st0{clip-path:url(#SVGID_00000054243884866504175450000017032611705034291377_);}
	.st1{fill:#8800FF;}
	.st2{fill:#E4E4E4;}
	.st3{fill:#9E616A;}
	.st4{fill:#CCCCCC;}
	.st5{fill:#2F2E41;}
</style>
<g>
	<defs>
		<rect id="SVGID_1_" x="46.1" y="31.3" width="205.8" height="214.1"/>
	</defs>
	<clipPath id="SVGID_00000118394639059766092010000004881911086345862549_">
		<use xlink:href="#SVGID_1_"  style="overflow:visible;"/>
	</clipPath>
	<g style="clip-path:url(#SVGID_00000118394639059766092010000004881911086345862549_);">
		<path class="st1" d="M200.9,77.6L98.4,64.5c-0.3,0-0.6-0.1-0.8-0.1c-0.3,0-0.5,0-0.8,0.1c-0.3,0-0.5,0.1-0.8,0.2
			c-0.3,0.1-0.5,0.2-0.8,0.3c-0.3,0.1-0.5,0.2-0.7,0.4c-0.2,0.1-0.5,0.3-0.7,0.4c-0.2,0.2-0.4,0.3-0.7,0.5c-0.2,0.2-0.4,0.4-0.6,0.6
			c-0.2,0.2-0.4,0.5-0.6,0.7c-0.2,0.2-0.3,0.5-0.5,0.8c-0.2,0.3-0.3,0.5-0.4,0.8c-0.1,0.3-0.3,0.6-0.4,0.9c-0.1,0.3-0.2,0.6-0.3,1
			c-0.1,0.3-0.2,0.7-0.2,1c-0.1,0.3-0.1,0.7-0.1,1c0,0.4,0,0.7,0,1.1c0,0.4,0,0.7,0,1.1c0,0.4,0.1,0.7,0.1,1.1
			c0.1,0.4,0.1,0.7,0.2,1.1c0.1,0.3,0.2,0.7,0.3,1c0.1,0.3,0.2,0.7,0.4,1c0.1,0.3,0.3,0.6,0.4,0.9c0.2,0.3,0.3,0.6,0.5,0.9
			c0.2,0.3,0.4,0.6,0.6,0.8c0.2,0.3,0.4,0.5,0.6,0.7c0.2,0.2,0.4,0.5,0.7,0.7c0.2,0.2,0.5,0.4,0.7,0.6c0.2,0.2,0.5,0.3,0.7,0.5
			c0.3,0.2,0.5,0.3,0.8,0.4c0.3,0.1,0.5,0.2,0.8,0.3c0.3,0.1,0.5,0.2,0.8,0.2c0.3,0.1,0.6,0.1,0.8,0.1L200.9,93c0.3,0,0.6,0,0.9-0.1
			c0.1,0,0.3-0.1,0.4-0.2c0.1-0.1,0.3-0.1,0.4-0.2c0.1-0.1,0.3-0.2,0.4-0.3c0.1-0.1,0.2-0.2,0.4-0.4c0.1-0.1,0.2-0.3,0.3-0.4
			c0.1-0.1,0.2-0.3,0.3-0.5c0.1-0.2,0.2-0.3,0.3-0.5c0.1-0.2,0.2-0.4,0.3-0.6c0.1-0.2,0.2-0.4,0.2-0.6c0.1-0.2,0.1-0.4,0.2-0.6
			c0.1-0.2,0.1-0.5,0.1-0.7c0-0.2,0.1-0.5,0.1-0.7c0-0.2,0.1-0.5,0.1-0.7s0-0.5,0-0.8c0-0.3,0-0.5,0-0.8c0-0.3,0-0.5-0.1-0.8
			c0-0.3-0.1-0.5-0.1-0.7c0-0.2-0.1-0.5-0.1-0.7c-0.1-0.2-0.1-0.5-0.2-0.7c-0.1-0.2-0.1-0.4-0.2-0.6c-0.1-0.2-0.2-0.4-0.3-0.6
			c-0.1-0.2-0.2-0.4-0.3-0.6c-0.1-0.2-0.2-0.4-0.3-0.5c-0.1-0.2-0.2-0.3-0.3-0.5c-0.1-0.2-0.2-0.3-0.4-0.4c-0.1-0.1-0.2-0.3-0.4-0.4
			c-0.1-0.1-0.3-0.2-0.4-0.3c-0.1-0.1-0.3-0.2-0.4-0.2c-0.1-0.1-0.3-0.1-0.4-0.2C201.2,77.6,201.1,77.6,200.9,77.6"/>
		<path class="st2" d="M200.9,107l-102.5-2.5c-0.6,0-1.1,0-1.7,0.2c-0.3,0.1-0.5,0.1-0.8,0.2c-0.3,0.1-0.5,0.2-0.8,0.3
			c-0.3,0.1-0.5,0.3-0.7,0.4c-0.2,0.2-0.5,0.3-0.7,0.5c-0.2,0.2-0.4,0.4-0.7,0.6c-0.2,0.2-0.4,0.4-0.6,0.7c-0.2,0.2-0.4,0.5-0.6,0.8
			c-0.2,0.3-0.3,0.5-0.5,0.8c-0.2,0.3-0.3,0.6-0.4,0.9c-0.1,0.3-0.3,0.6-0.4,0.9c-0.1,0.3-0.2,0.7-0.3,1c-0.1,0.3-0.2,0.7-0.2,1
			c-0.1,0.3-0.1,0.7-0.1,1.1c0,0.4,0,0.7,0,1.1c0,0.4,0,0.7,0,1.1c0,0.4,0.1,0.7,0.1,1.1c0.1,0.3,0.1,0.7,0.2,1
			c0.1,0.3,0.2,0.7,0.3,1c0.1,0.3,0.2,0.6,0.4,0.9c0.1,0.3,0.3,0.6,0.4,0.9c0.2,0.3,0.3,0.6,0.5,0.8c0.2,0.3,0.4,0.5,0.6,0.8
			c0.2,0.2,0.4,0.5,0.6,0.7c0.2,0.2,0.4,0.4,0.7,0.6c0.2,0.2,0.5,0.4,0.7,0.5c0.2,0.2,0.5,0.3,0.7,0.4c0.3,0.1,0.5,0.2,0.8,0.3
			c0.3,0.1,0.5,0.2,0.8,0.2c0.3,0.1,0.5,0.1,0.8,0.1c0.3,0,0.6,0,0.8,0l102.5-3.1c0.2,0,0.3,0,0.4-0.1c0.1,0,0.3-0.1,0.4-0.1
			c0.1-0.1,0.3-0.1,0.4-0.2c0.1-0.1,0.3-0.2,0.4-0.3c0.1-0.1,0.3-0.2,0.4-0.3c0.1-0.1,0.2-0.3,0.4-0.4c0.1-0.1,0.2-0.3,0.3-0.4
			c0.1-0.2,0.2-0.3,0.3-0.5c0.1-0.2,0.2-0.4,0.3-0.6c0.1-0.2,0.2-0.4,0.3-0.6c0.1-0.2,0.2-0.4,0.2-0.6c0.1-0.2,0.1-0.4,0.2-0.7
			c0.1-0.2,0.1-0.5,0.1-0.7c0-0.2,0.1-0.5,0.1-0.7c0-0.2,0.1-0.5,0.1-0.8s0-0.5,0-0.8c0-0.3,0-0.5,0-0.8c0-0.3,0-0.5-0.1-0.8
			c0-0.2-0.1-0.5-0.1-0.7c0-0.2-0.1-0.5-0.1-0.7c-0.1-0.2-0.1-0.4-0.2-0.7c-0.1-0.2-0.1-0.4-0.2-0.6c-0.1-0.2-0.2-0.4-0.3-0.6
			c-0.1-0.2-0.2-0.4-0.3-0.6c-0.1-0.2-0.2-0.3-0.3-0.5c-0.1-0.2-0.2-0.3-0.3-0.4c-0.1-0.1-0.2-0.3-0.4-0.4c-0.1-0.1-0.2-0.2-0.4-0.3
			c-0.1-0.1-0.3-0.2-0.4-0.3c-0.1-0.1-0.3-0.1-0.4-0.2c-0.1-0.1-0.3-0.1-0.4-0.1C201.2,107,201.1,107,200.9,107z"/>
		<path class="st2" d="M200.9,134.6l-102.5,7.5c-0.3,0-0.6,0.1-0.8,0.1c-0.3,0.1-0.6,0.1-0.8,0.2c-0.3,0.1-0.5,0.2-0.8,0.3
			c-0.3,0.1-0.5,0.3-0.8,0.4c-0.3,0.2-0.5,0.3-0.7,0.5c-0.2,0.2-0.5,0.4-0.7,0.6c-0.2,0.2-0.4,0.4-0.7,0.7c-0.2,0.2-0.4,0.5-0.6,0.7
			c-0.2,0.3-0.4,0.5-0.6,0.8c-0.2,0.3-0.3,0.6-0.5,0.9c-0.2,0.3-0.3,0.6-0.4,0.9c-0.1,0.3-0.3,0.6-0.4,1c-0.1,0.3-0.2,0.7-0.3,1
			c-0.1,0.3-0.2,0.7-0.2,1.1c-0.1,0.4-0.1,0.7-0.1,1.1c0,0.4,0,0.7,0,1.1c0,0.4,0,0.7,0,1.1c0,0.4,0.1,0.7,0.1,1
			c0.1,0.3,0.1,0.7,0.2,1c0.1,0.3,0.2,0.7,0.3,1c0.1,0.3,0.2,0.6,0.4,0.9c0.1,0.3,0.3,0.6,0.4,0.8c0.2,0.3,0.3,0.5,0.5,0.8
			c0.2,0.2,0.4,0.5,0.6,0.7c0.2,0.2,0.4,0.4,0.6,0.6c0.2,0.2,0.4,0.4,0.7,0.5c0.2,0.2,0.5,0.3,0.7,0.4c0.2,0.1,0.5,0.3,0.7,0.4
			c0.3,0.1,0.5,0.2,0.8,0.3c0.3,0.1,0.5,0.1,0.8,0.2c0.3,0,0.5,0.1,0.8,0.1c0.3,0,0.6,0,0.8-0.1l102.5-13.1c0.2,0,0.3-0.1,0.4-0.1
			c0.2,0,0.3-0.1,0.4-0.2c0.1-0.1,0.3-0.2,0.4-0.2c0.1-0.1,0.3-0.2,0.4-0.3c0.1-0.1,0.3-0.2,0.4-0.4c0.1-0.1,0.2-0.3,0.4-0.4
			c0.1-0.2,0.2-0.3,0.3-0.5c0.1-0.2,0.2-0.3,0.3-0.5c0.1-0.2,0.2-0.4,0.3-0.6c0.1-0.2,0.2-0.4,0.3-0.6c0.1-0.2,0.2-0.4,0.2-0.7
			c0.1-0.2,0.1-0.5,0.2-0.7c0.1-0.2,0.1-0.5,0.1-0.7c0-0.2,0.1-0.5,0.1-0.7c0-0.3,0.1-0.5,0.1-0.8c0-0.3,0-0.5,0-0.8
			c0-0.3,0-0.5,0-0.8c0-0.3,0-0.5-0.1-0.7c0-0.2-0.1-0.5-0.1-0.7c0-0.2-0.1-0.5-0.1-0.7c-0.1-0.2-0.1-0.4-0.2-0.6
			c-0.1-0.2-0.1-0.4-0.2-0.6c-0.1-0.2-0.2-0.4-0.3-0.6c-0.1-0.2-0.2-0.4-0.3-0.5c-0.1-0.2-0.2-0.3-0.3-0.5c-0.1-0.1-0.2-0.3-0.3-0.4
			c-0.1-0.1-0.2-0.2-0.4-0.4c-0.1-0.1-0.2-0.2-0.4-0.3c-0.1-0.1-0.3-0.2-0.4-0.2c-0.1-0.1-0.3-0.1-0.4-0.2
			C201.5,134.6,201.2,134.6,200.9,134.6"/>
		<path class="st3" d="M145.1,136c0.6,1.1,1.7,1.9,2.9,2.3c1.2,0.4,2.5,0.3,3.6-0.2c1.1-0.5,2.1-1.4,2.6-2.6
			c0.5-1.1,0.6-2.4,0.2-3.6L174.2,91l-9.5-5.8l-17.2,43.3c-0.1,0-0.1,0.1-0.2,0.1c-0.1,0-0.1,0.1-0.2,0.1c-0.1,0-0.1,0.1-0.2,0.1
			c-0.1,0-0.1,0.1-0.2,0.1c-1.2,0.7-2,1.8-2.3,3.2C144.2,133.4,144.4,134.8,145.1,136L145.1,136z"/>
		<path class="st4" d="M170.4,106.7l-14.1-3.6c0,0,0.5-1,1.2-2.8c0.7-1.7,1.8-4.1,3-6.9c1.2-2.7,2.5-5.8,3.8-8.8
			c1.3-3,2.5-6,3.6-8.6c1-2.6,2.2-4.1,3.4-5c1-0.7,2.2-1.1,3.5-0.9c1,0.1,1.9,0.5,2.7,1c0.4,0.2,0.7,0.5,1.1,0.8l3.3,5.9
			L170.4,106.7z"/>
		<path class="st2" d="M57.5,103.5c-0.3,0-0.7,0.1-1,0.1c-0.3,0.1-0.7,0.1-1,0.2c-0.3,0.1-0.7,0.2-1,0.4c-0.3,0.1-0.7,0.3-1,0.5
			c-0.3,0.2-0.6,0.4-0.9,0.6c-0.3,0.2-0.6,0.4-0.9,0.7c-0.3,0.2-0.5,0.5-0.8,0.7c-0.3,0.3-0.5,0.5-0.7,0.8c-0.2,0.3-0.5,0.6-0.7,0.9
			c-0.2,0.3-0.4,0.6-0.6,1c-0.2,0.3-0.4,0.7-0.5,1c-0.2,0.3-0.3,0.7-0.4,1.1c-0.1,0.4-0.3,0.8-0.4,1.1c-0.1,0.4-0.2,0.8-0.3,1.2
			c-0.1,0.4-0.1,0.8-0.2,1.2c0,0.4-0.1,0.8-0.1,1.2c0,0.4,0,0.8,0.1,1.2c0,0.4,0.1,0.8,0.2,1.2c0.1,0.4,0.2,0.8,0.3,1.1
			c0.1,0.4,0.2,0.7,0.4,1.1c0.1,0.3,0.3,0.7,0.4,1c0.2,0.3,0.3,0.6,0.5,0.9c0.2,0.3,0.4,0.6,0.6,0.8c0.2,0.3,0.4,0.5,0.7,0.8
			c0.2,0.2,0.5,0.5,0.7,0.7c0.3,0.2,0.5,0.4,0.8,0.6c0.5,0.4,1.1,0.6,1.7,0.9c0.6,0.2,1.3,0.4,1.9,0.4c0.3,0,0.7,0,1,0
			c0.3,0,0.7,0,1-0.1c0.3,0,0.7-0.1,1-0.2c0.3-0.1,0.7-0.2,1-0.3c0.3-0.1,0.6-0.3,1-0.4c0.3-0.2,0.6-0.3,0.9-0.5
			c0.3-0.2,0.6-0.4,0.9-0.6c0.3-0.2,0.5-0.4,0.8-0.7c0.3-0.2,0.5-0.5,0.8-0.8c0.2-0.3,0.5-0.5,0.7-0.8c0.2-0.3,0.4-0.6,0.6-0.9
			c0.2-0.3,0.4-0.6,0.6-0.9c0.2-0.3,0.3-0.7,0.5-1c0.1-0.3,0.3-0.7,0.4-1c0.1-0.4,0.2-0.7,0.3-1.1c0.1-0.4,0.2-0.7,0.2-1.1
			c0.1-0.4,0.1-0.8,0.1-1.1c0-0.4,0-0.8,0-1.1c0-0.4,0-0.8,0-1.1c0-0.4-0.1-0.7-0.1-1.1c-0.1-0.4-0.1-0.7-0.2-1.1
			c-0.1-0.4-0.2-0.7-0.3-1c-0.1-0.3-0.3-0.6-0.4-1c-0.1-0.3-0.3-0.6-0.5-0.9c-0.3-0.6-0.7-1.1-1.2-1.6c-0.2-0.2-0.5-0.5-0.7-0.7
			c-0.2-0.2-0.5-0.4-0.8-0.6c-0.3-0.2-0.5-0.4-0.8-0.5c-0.3-0.2-0.6-0.3-0.9-0.4c-0.6-0.3-1.2-0.4-1.9-0.5c-0.3-0.1-0.7-0.1-1-0.1
			C58.2,103.5,57.8,103.5,57.5,103.5"/>
		<path class="st2" d="M57.5,145.1c-0.3,0-0.7,0.1-1,0.1c-0.3,0.1-0.7,0.1-1,0.2c-0.3,0.1-0.7,0.2-1,0.4c-0.3,0.1-0.7,0.3-1,0.5
			c-0.3,0.2-0.6,0.4-0.9,0.6c-0.3,0.2-0.6,0.4-0.9,0.7c-0.3,0.2-0.5,0.5-0.8,0.7c-0.3,0.3-0.5,0.5-0.7,0.8c-0.2,0.3-0.5,0.6-0.7,0.9
			c-0.2,0.3-0.4,0.6-0.6,1c-0.2,0.3-0.4,0.7-0.5,1c-0.2,0.3-0.3,0.7-0.4,1.1c-0.1,0.4-0.3,0.8-0.4,1.1c-0.1,0.4-0.2,0.8-0.3,1.2
			c-0.1,0.4-0.1,0.8-0.2,1.2c0,0.4-0.1,0.8-0.1,1.2c0,0.4,0,0.8,0.1,1.2c0,0.4,0.1,0.8,0.2,1.2c0.1,0.4,0.2,0.8,0.3,1.1
			s0.2,0.7,0.4,1.1c0.1,0.3,0.3,0.7,0.4,1c0.2,0.3,0.3,0.6,0.5,0.9c0.2,0.3,0.4,0.6,0.6,0.8c0.2,0.3,0.4,0.5,0.7,0.8
			c0.2,0.2,0.5,0.5,0.7,0.7c0.3,0.2,0.5,0.4,0.8,0.6c0.5,0.4,1.1,0.6,1.7,0.9c0.6,0.2,1.3,0.4,1.9,0.4c0.3,0,0.7,0,1,0
			c0.3,0,0.7,0,1-0.1c0.3,0,0.7-0.1,1-0.2c0.3-0.1,0.7-0.2,1-0.3c0.3-0.1,0.6-0.3,1-0.4c0.3-0.2,0.6-0.3,0.9-0.5
			c0.3-0.2,0.6-0.4,0.9-0.6c0.3-0.2,0.5-0.4,0.8-0.7c0.3-0.2,0.5-0.5,0.8-0.8c0.2-0.3,0.5-0.5,0.7-0.8c0.2-0.3,0.4-0.6,0.6-0.9
			c0.2-0.3,0.4-0.6,0.6-0.9c0.2-0.3,0.3-0.7,0.5-1c0.1-0.3,0.3-0.7,0.4-1c0.1-0.4,0.2-0.7,0.3-1.1c0.1-0.4,0.2-0.7,0.2-1.1
			c0.1-0.4,0.1-0.8,0.1-1.1c0-0.4,0-0.8,0-1.1c0-0.4,0-0.8,0-1.1c0-0.4-0.1-0.7-0.1-1.1c-0.1-0.4-0.1-0.7-0.2-1.1
			c-0.1-0.4-0.2-0.7-0.3-1c-0.1-0.3-0.3-0.6-0.4-1c-0.1-0.3-0.3-0.6-0.5-0.9c-0.3-0.6-0.7-1.1-1.2-1.6c-0.2-0.2-0.5-0.5-0.7-0.7
			c-0.2-0.2-0.5-0.4-0.8-0.6c-0.3-0.2-0.5-0.4-0.8-0.5c-0.3-0.2-0.6-0.3-0.9-0.4c-0.6-0.3-1.2-0.4-1.9-0.5c-0.3-0.1-0.7-0.1-1-0.1
			C58.2,145,57.8,145.1,57.5,145.1"/>
		<path class="st1" d="M57.5,58.4c-0.3,0-0.7,0-1,0c-0.3,0-0.7,0.1-1,0.1c-0.3,0.1-0.7,0.2-1,0.3c-0.3,0.1-0.7,0.2-1,0.4
			c-0.3,0.1-0.6,0.3-0.9,0.5c-0.3,0.2-0.6,0.4-0.9,0.6c-0.3,0.2-0.5,0.4-0.8,0.7c-0.3,0.2-0.5,0.5-0.7,0.8c-0.2,0.3-0.5,0.5-0.7,0.8
			c-0.2,0.3-0.4,0.6-0.6,0.9c-0.2,0.3-0.4,0.6-0.5,1c-0.2,0.3-0.3,0.7-0.4,1c-0.1,0.4-0.3,0.7-0.4,1.1s-0.2,0.8-0.3,1.1
			c-0.1,0.4-0.1,0.8-0.2,1.2c0,0.4-0.1,0.8-0.1,1.2c0,0.4,0,0.8,0.1,1.2c0,0.4,0.1,0.8,0.2,1.2c0.1,0.4,0.2,0.8,0.3,1.1
			c0.1,0.4,0.2,0.7,0.4,1.1c0.1,0.4,0.3,0.7,0.4,1c0.2,0.3,0.3,0.7,0.5,1c0.2,0.3,0.4,0.6,0.6,0.9c0.2,0.3,0.4,0.6,0.7,0.8
			c0.2,0.3,0.5,0.5,0.7,0.8c0.3,0.2,0.5,0.5,0.8,0.7c0.3,0.2,0.6,0.4,0.9,0.6c0.3,0.2,0.6,0.3,0.9,0.5c0.3,0.1,0.6,0.3,1,0.4
			c0.6,0.2,1.3,0.3,2,0.4c0.7,0.1,1.4,0,2-0.1c0.3,0,0.7-0.1,1-0.2c0.3-0.1,0.6-0.2,1-0.3c0.3-0.1,0.6-0.3,0.9-0.4
			c0.3-0.2,0.6-0.3,0.9-0.5c0.3-0.2,0.6-0.4,0.8-0.6c0.3-0.2,0.5-0.4,0.8-0.7c0.2-0.2,0.5-0.5,0.7-0.8c0.2-0.3,0.4-0.5,0.6-0.8
			c0.2-0.3,0.4-0.6,0.6-0.9c0.2-0.3,0.3-0.6,0.5-0.9c0.1-0.3,0.3-0.7,0.4-1c0.1-0.4,0.2-0.7,0.3-1.1c0.1-0.4,0.2-0.7,0.2-1.1
			c0.1-0.4,0.1-0.7,0.1-1.1c0-0.4,0-0.8,0-1.1c0-0.4,0-0.8,0-1.1c0-0.4-0.1-0.8-0.1-1.1c-0.1-0.4-0.1-0.7-0.2-1.1
			c-0.1-0.4-0.2-0.7-0.3-1.1c-0.1-0.3-0.3-0.7-0.4-1c-0.1-0.3-0.3-0.6-0.5-0.9c-0.2-0.3-0.4-0.6-0.6-0.9c-0.2-0.3-0.4-0.6-0.6-0.8
			c-0.2-0.3-0.5-0.5-0.7-0.8c-0.2-0.2-0.5-0.5-0.8-0.7c-0.3-0.2-0.5-0.4-0.8-0.6c-0.3-0.2-0.6-0.3-0.9-0.5c-0.3-0.2-0.6-0.3-0.9-0.4
			c-0.3-0.1-0.6-0.2-1-0.3c-0.3-0.1-0.7-0.1-1-0.2C58.2,58.5,57.8,58.4,57.5,58.4L57.5,58.4z M57.5,57.3c1.5,0,2.9,0.4,4.3,1.1
			c1.3,0.7,2.5,1.6,3.4,2.8c1,1.2,1.8,2.5,2.3,4c1.1,3.1,1.1,6.5,0,9.7c-0.5,1.5-1.3,2.8-2.3,4c-0.9,1.1-2.1,2.1-3.4,2.8
			c-1.3,0.7-2.8,1.1-4.3,1.1c-1.5,0-3-0.2-4.4-0.9c-1.4-0.6-2.6-1.5-3.6-2.7c-1.1-1.2-1.9-2.6-2.5-4.1c-1.2-3.3-1.2-6.9,0-10.2
			c0.6-1.5,1.4-2.9,2.5-4.1c1-1.1,2.2-2.1,3.6-2.7C54.5,57.6,56,57.3,57.5,57.3L57.5,57.3z"/>
		<path class="st1" d="M57.5,73.2L54,65.9l0.8-0.5l2.9,6l12.1-14.2l0.7,0.8L57.5,73.2z"/>
		<path class="st3" d="M184.5,216.5l-8.6,0l2.8,22.5l5.9,0V216.5z"/>
		<path class="st5" d="M186,244.7l-18.9-0.1v-0.2c0-0.5,0-1,0.1-1.4c0.2-0.9,0.6-1.8,1.1-2.6c0.5-0.8,1.2-1.5,2-2
			c0.8-0.5,1.7-0.9,2.6-1.1c0.5-0.1,1-0.1,1.4-0.1l11.5,0.1V244.7z"/>
		<path class="st3" d="M156.8,216.4l-8.6,0l2.8,22.5l5.8,0V216.4z"/>
		<path class="st5" d="M158.3,244.6l-18.8-0.1v-0.2c0-0.5,0-1,0.1-1.4c0.2-0.9,0.6-1.8,1.1-2.6c0.5-0.8,1.2-1.5,2-2
			c0.8-0.5,1.7-0.9,2.6-1.1c0.5-0.1,1-0.1,1.4-0.1l11.5,0.1V244.6z"/>
		<path class="st5" d="M156.5,124.3l-14.5,54l5.3,51.8l11.7,0.3l-2.6-46.7l14.6-23.3l3.2,70.4l10.6-0.8l5.9-60.5
			c2-4.7,3.5-9.7,4.4-14.7c0.7-4,1.1-8,1-12c0-2.7-0.2-5.4-0.6-8.1c-0.1-1-0.3-2-0.6-3l-4.3-4.4L156.5,124.3z"/>
		<path class="st4" d="M175.6,133.3c-2.4,0-4.7-0.1-6.8-0.2c-2.1-0.1-4.2-0.4-6.3-0.8c-1.8-0.3-3.5-0.9-5.1-1.6
			c-1.3-0.6-2.5-1.5-3.3-2.6l-0.1-0.1l4-25.7l4.3-28.9c0.3-1.9,1.3-3.7,2.7-4.9c1.5-1.2,3.4-1.9,5.3-1.8l13.4,0.4c1,0,2,0.3,2.9,0.7
			c0.9,0.4,1.7,1,2.4,1.8c0.7,0.7,1.2,1.6,1.5,2.6c0.3,0.9,0.5,1.9,0.4,2.9l-1.8,28.8l6.5,28.4l-0.5,0.1c-0.2,0-0.9,0.1-2,0.2
			c-1.5,0.2-2.9,0.3-4.4,0.4c-2.1,0.2-4.1,0.3-6.1,0.4C180.2,133.2,177.8,133.3,175.6,133.3z"/>
		<path class="st5" d="M168.2,61.3C168.2,61.3,168.2,61.3,168.2,61.3c-0.3,0-0.6-0.1-0.8-0.2c-0.3-0.1-0.5-0.3-0.7-0.5
			c-0.2-0.2-0.4-0.4-0.5-0.7c-0.1-0.3-0.2-0.5-0.2-0.8V47.3c0-2.1,0.4-4.2,1.3-6.2c1.6-3.8,4.7-6.9,8.5-8.5c2.4-1,5.1-1.5,7.7-1.2
			c2.6,0.2,5.2,1.1,7.4,2.6c2.2,1.4,4,3.4,5.3,5.7c1.3,2.3,1.9,4.9,1.9,7.5v11.9c0,0.3-0.1,0.6-0.2,0.8c-0.2,0.5-0.6,0.9-1.1,1.1
			c-0.3,0.1-0.5,0.2-0.8,0.2L168.2,61.3L168.2,61.3z"/>
		<path class="st3" d="M189.3,43.2c1.1,2,1.6,4.4,1.4,6.7c-0.2,2.3-1.1,4.5-2.5,6.3c-1.5,1.8-3.4,3.1-5.6,3.8
			c-2.2,0.7-4.6,0.7-6.8,0.1c-1.5-0.4-2.9-1.1-4.1-2.1c-1.2-1-2.2-2.1-2.9-3.5c-1.1-2-1.6-4.4-1.4-6.7c0.2-2.3,1.1-4.5,2.5-6.3
			c1.5-1.8,3.4-3.1,5.6-3.8c2.2-0.7,4.6-0.7,6.8-0.1c1.5,0.4,2.9,1.1,4.1,2.1C187.6,40.7,188.6,41.9,189.3,43.2L189.3,43.2z"/>
		<path class="st5" d="M162.3,48.3c0-1.7,0.3-3.4,1-4.9c1.3-3,3.7-5.5,6.7-6.8c1.6-0.7,3.2-1,4.9-1l2.4,0c0,0,0.1,0,0.1,0
			c1.7,0,3.3,0.3,4.8,1c1.5,0.6,2.9,1.6,4.1,2.7c1.2,1.2,2.1,2.6,2.7,4.1c0.6,1.5,1,3.2,1,4.8v0.2l-5,0l-1.7-4.8l-0.3,4.8l-2.6,0
			l-0.9-2.4l-0.2,2.4l-16.9,0.1L162.3,48.3z"/>
		<path class="st3" d="M142,73.3c-0.8,0.2-1.5,0.5-2.1,1c-0.5,0.4-0.9,0.9-1.2,1.4c-0.6,1-0.9,2.3-0.8,3.5c0.1,0.6,0.2,1.2,0.5,1.8
			c0.3,0.7,0.8,1.3,1.4,1.8c0.6,0.5,1.3,0.9,2,1.1c0.7,0.2,1.5,0.3,2.3,0.2c0.8-0.1,1.5-0.4,2.2-0.8c0,0,0.1-0.1,0.1-0.1
			c0,0,0.1-0.1,0.1-0.1c0,0,0.1-0.1,0.1-0.1c0,0,0.1-0.1,0.1-0.1l27.8,9.9c0.9,0.3,1.8,0.3,2.7,0.1c0.9-0.3,1.6-0.8,2.2-1.6l6.6-9.1
			l-8-5.4l-4.2,4.8l-25.5-5.1c0-0.1-0.1-0.1-0.1-0.2c0-0.1-0.1-0.1-0.1-0.2c0-0.1-0.1-0.1-0.1-0.2c0-0.1-0.1-0.1-0.1-0.2
			c-0.6-1-1.5-1.7-2.6-2.2C144.3,73.1,143.1,73,142,73.3z"/>
		<path class="st4" d="M174.3,78.6c0.8-1,2-2.4,3.2-3.7c1.2-1.3,2.4-2.7,3.3-3.7c0.9-1,1.5-1.6,1.5-1.6c0.8-1.3,2.1-2.2,3.5-2.6
			c1.4-0.4,3-0.4,4.4,0.2c1.4,0.6,2.6,1.6,3.3,2.9c0.7,1.3,1,2.9,0.7,4.4c-0.2,0.9-0.5,1.7-1,2.4c0,0-0.9,1.2-2.3,3
			c-1.4,1.8-3.2,4.1-5.1,6.5c-1.9,2.3-3.7,4.7-5.2,6.4c-1.4,1.7-2.5,2.8-2.6,2.7l-5-14.9C172.9,80.4,173.4,79.6,174.3,78.6z"/>
		<path class="st5" d="M177.2,61c-0.1,0.4,0,0.8,0.1,1.2c0.1,0.2,0.2,0.4,0.3,0.5c0.1,0.1,0.2,0.3,0.3,0.4c0.4,0.3,0.9,0.5,1.4,0.5
			c0,0,0.1,0,0.1,0c0,0,0.1,0,0.1,0c0,0,0.1,0,0.1,0c0,0,0.1,0,0.1,0l1.8-0.3l2.5-5.3v4.8l8.1-1.5V40.8l-13.7,0.1l0.3,0.4
			c1.1,1.3,1.9,2.9,2.1,4.6c0.3,1.7,0.2,3.5-0.1,5.2c-0.3,1.7-0.8,3.4-1.5,5.1c-0.6,1.5-1.2,2.9-1.9,4.3
			C177.4,60.6,177.3,60.8,177.2,61z"/>
	</g>
</g>
</svg>
