<?xml version="1.0" encoding="utf-8"?>
<!-- Generator: Adobe Illustrator 26.1.0, SVG Export Plug-In . SVG Version: 6.00 Build 0)  -->
<svg version="1.1" id="Calque_1" xmlns="http://www.w3.org/2000/svg" xmlns:xlink="http://www.w3.org/1999/xlink" x="0px" y="0px"
	 viewBox="0 0 252.1 201" style="enable-background:new 0 0 252.1 201;" xml:space="preserve">
<style type="text/css">
	.st0{fill:#3F3D56;}
	.st1{fill:#8800FF;}
	.st2{fill:#E6E6E6;}
	.st3{fill:#FF6584;}
	.st4{fill:#CCCCCC;}
	.st5{fill:#FFB8B8;}
	.st6{fill:#2F2E41;}
	.st7{fill:#A0616A;}
</style>
<path class="st0" d="M244.8,19.4H12.1c-1.9,0-3.8,0.8-5.1,2.1c-1.4,1.4-2.1,3.2-2.1,5.2v122.9c0,1.9,0.8,3.8,2.1,5.2
	c1.4,1.4,3.2,2.1,5.1,2.1h232.7c1.9,0,3.8-0.8,5.1-2.1c1.4-1.4,2.1-3.2,2.1-5.2V26.7c0-1.9-0.8-3.8-2.1-5.2
	C248.6,20.2,246.7,19.4,244.8,19.4z M251.4,149.6c0,1.7-0.7,3.4-1.9,4.7c-1.2,1.2-2.9,1.9-4.7,1.9H12.1c-1.7,0-3.4-0.7-4.7-1.9
	c-1.2-1.2-1.9-2.9-1.9-4.7V26.7c0-1.7,0.7-3.4,1.9-4.7c1.2-1.2,2.9-1.9,4.7-1.9h232.7c1.7,0,3.4,0.7,4.7,1.9
	c1.2,1.2,1.9,2.9,1.9,4.7V149.6z"/>
<path class="st0" d="M233.4,39.4H23.5c-0.1,0-0.2,0-0.2-0.1c-0.1-0.1-0.1-0.2-0.1-0.2c0-0.1,0-0.2,0.1-0.2c0.1-0.1,0.2-0.1,0.2-0.1
	h209.8c0.1,0,0.2,0,0.2,0.1c0.1,0.1,0.1,0.2,0.1,0.2c0,0.1,0,0.2-0.1,0.2C233.5,39.3,233.5,39.4,233.4,39.4z"/>
<path class="st0" d="M82.8,142c-0.1,0-0.2,0-0.2-0.1c-0.1-0.1-0.1-0.2-0.1-0.2V27.4c0-0.1,0-0.2,0.1-0.2c0.1-0.1,0.2-0.1,0.2-0.1
	c0.1,0,0.2,0,0.2,0.1c0.1,0.1,0.1,0.2,0.1,0.2v114.2c0,0.1,0,0.2-0.1,0.2C83,141.9,82.9,142,82.8,142z"/>
<path class="st0" d="M135.2,142c-0.1,0-0.2,0-0.2-0.1s-0.1-0.2-0.1-0.2V27.4c0-0.1,0-0.2,0.1-0.2s0.2-0.1,0.2-0.1
	c0.1,0,0.2,0,0.2,0.1s0.1,0.2,0.1,0.2v114.2c0,0.1,0,0.2-0.1,0.2S135.3,142,135.2,142z"/>
<path class="st0" d="M187.6,142c-0.1,0-0.2,0-0.2-0.1c-0.1-0.1-0.1-0.2-0.1-0.2V27.4c0-0.1,0-0.2,0.1-0.2c0.1-0.1,0.2-0.1,0.2-0.1
	c0.1,0,0.2,0,0.2,0.1s0.1,0.2,0.1,0.2v114.2c0,0.1,0,0.2-0.1,0.2S187.7,142,187.6,142z"/>
<path class="st1" d="M49.2,75.2H36.5c-0.4,0-0.8-0.2-1.1-0.5c-0.3-0.3-0.5-0.7-0.5-1.1v-15c0-0.4,0.2-0.8,0.5-1.1
	c0.3-0.3,0.7-0.5,1.1-0.5h12.7c0.4,0,0.8,0.2,1.1,0.5c0.3,0.3,0.5,0.7,0.5,1.1v15c0,0.4-0.2,0.8-0.5,1.1C50,75,49.6,75.2,49.2,75.2z
	"/>
<path class="st1" d="M67.2,117.9H54.5c-0.4,0-0.8-0.2-1.1-0.5c-0.3-0.3-0.5-0.7-0.5-1.1v-15c0-0.4,0.2-0.8,0.5-1.1
	c0.3-0.3,0.7-0.5,1.1-0.5h12.7c0.4,0,0.8,0.2,1.1,0.5c0.3,0.3,0.5,0.7,0.5,1.1v15c0,0.4-0.2,0.8-0.5,1.1
	C68,117.7,67.6,117.9,67.2,117.9z"/>
<path class="st1" d="M108.1,84.2H95.4c-0.4,0-0.8-0.2-1.1-0.5c-0.3-0.3-0.5-0.7-0.5-1.1v-15c0-0.4,0.2-0.8,0.5-1.1
	c0.3-0.3,0.7-0.5,1.1-0.5h12.7c0.4,0,0.8,0.2,1.1,0.5c0.3,0.3,0.5,0.7,0.5,1.1v15c0,0.4-0.2,0.8-0.5,1.1
	C108.9,84,108.5,84.2,108.1,84.2z"/>
<path class="st1" d="M161.2,67.9h-12.7c-0.4,0-0.8-0.2-1.1-0.5c-0.3-0.3-0.5-0.7-0.5-1.1v-15c0-0.4,0.2-0.8,0.5-1.1
	c0.3-0.3,0.7-0.5,1.1-0.5h12.7c0.4,0,0.8,0.2,1.1,0.5c0.3,0.3,0.5,0.7,0.5,1.1v15c0,0.4-0.2,0.8-0.5,1.1
	C162,67.7,161.6,67.9,161.2,67.9z"/>
<path class="st1" d="M210.1,67.9h-12.7c-0.4,0-0.8-0.2-1.1-0.5c-0.3-0.3-0.5-0.7-0.5-1.1v-15c0-0.4,0.2-0.8,0.5-1.1
	c0.3-0.3,0.7-0.5,1.1-0.5h12.7c0.4,0,0.8,0.2,1.1,0.5c0.3,0.3,0.5,0.7,0.5,1.1v15c0,0.4-0.2,0.8-0.5,1.1
	C210.9,67.7,210.5,67.9,210.1,67.9z"/>
<path class="st2" d="M232.6,72.1H220c-0.4,0-0.8-0.2-1.1-0.5s-0.5-0.7-0.5-1.1v-15c0-0.4,0.2-0.8,0.5-1.1c0.3-0.3,0.7-0.5,1.1-0.5
	h12.7c0.4,0,0.8,0.2,1.1,0.5c0.3,0.3,0.5,0.7,0.5,1.1v15c0,0.4-0.2,0.8-0.5,1.1C233.4,71.9,233.1,72.1,232.6,72.1z"/>
<path class="st2" d="M222.6,98.8h-12.7c-0.4,0-0.8-0.2-1.1-0.5c-0.3-0.3-0.5-0.7-0.5-1.1v-15c0-0.4,0.2-0.8,0.5-1.1
	c0.3-0.3,0.7-0.5,1.1-0.5h12.7c0.4,0,0.8,0.2,1.1,0.5c0.3,0.3,0.5,0.7,0.5,1.1v15c0,0.4-0.2,0.8-0.5,1.1
	C223.4,98.6,223,98.8,222.6,98.8z"/>
<path class="st3" d="M179.6,93.2h-12.7c-0.4,0-0.8-0.2-1.1-0.5c-0.3-0.3-0.5-0.7-0.5-1.1v-15c0-0.4,0.2-0.8,0.5-1.1
	c0.3-0.3,0.7-0.5,1.1-0.5h12.7c0.4,0,0.8,0.2,1.1,0.5c0.3,0.3,0.5,0.7,0.5,1.1v15c0,0.4-0.2,0.8-0.5,1.1
	C180.4,93.1,180,93.2,179.6,93.2z"/>
<path class="st2" d="M154.9,98.8h-12.7c-0.4,0-0.8-0.2-1.1-0.5c-0.3-0.3-0.5-0.7-0.5-1.1v-15c0-0.4,0.2-0.8,0.5-1.1
	c0.3-0.3,0.7-0.5,1.1-0.5h12.7c0.4,0,0.8,0.2,1.1,0.5c0.3,0.3,0.5,0.7,0.5,1.1v15c0,0.4-0.2,0.8-0.5,1.1
	C155.8,98.6,155.4,98.8,154.9,98.8z"/>
<path class="st2" d="M101.9,122.4H89.2c-0.4,0-0.8-0.2-1.1-0.5c-0.3-0.3-0.5-0.7-0.5-1.1v-15c0-0.4,0.2-0.8,0.5-1.1
	c0.3-0.3,0.7-0.5,1.1-0.5h12.7c0.4,0,0.8,0.2,1.1,0.5s0.5,0.7,0.5,1.1v15c0,0.4-0.2,0.8-0.5,1.1S102.3,122.4,101.9,122.4z"/>
<path class="st3" d="M37.7,102.6H25c-0.4,0-0.8-0.2-1.1-0.5c-0.3-0.3-0.5-0.7-0.5-1.1v-15c0-0.4,0.2-0.8,0.5-1.1
	c0.3-0.3,0.7-0.5,1.1-0.5h12.7c0.4,0,0.8,0.2,1.1,0.5c0.3,0.3,0.5,0.7,0.5,1.1v15c0,0.4-0.2,0.8-0.5,1.1
	C38.5,102.4,38.1,102.6,37.7,102.6z"/>
<path class="st2" d="M73.4,75.2H60.8c-0.4,0-0.8-0.2-1.1-0.5c-0.3-0.3-0.5-0.7-0.5-1.1v-15c0-0.4,0.2-0.8,0.5-1.1
	c0.3-0.3,0.7-0.5,1.1-0.5h12.7c0.4,0,0.8,0.2,1.1,0.5c0.3,0.3,0.5,0.7,0.5,1.1v15c0,0.4-0.2,0.8-0.5,1.1
	C74.2,75,73.8,75.2,73.4,75.2z"/>
<path class="st4" d="M63.1,33.7H43.3c-0.4,0-0.7-0.1-1-0.4c-0.3-0.3-0.4-0.6-0.4-1c0-0.4,0.1-0.7,0.4-1c0.3-0.3,0.6-0.4,1-0.4h19.8
	c0.4,0,0.7,0.1,1,0.4c0.3,0.3,0.4,0.6,0.4,1c0,0.4-0.1,0.7-0.4,1C63.8,33.5,63.4,33.7,63.1,33.7z"/>
<path class="st4" d="M118.9,33.7H99.1c-0.4,0-0.7-0.1-1-0.4c-0.3-0.3-0.4-0.6-0.4-1c0-0.4,0.1-0.7,0.4-1c0.3-0.3,0.6-0.4,1-0.4h19.8
	c0.4,0,0.7,0.1,1,0.4c0.3,0.3,0.4,0.6,0.4,1c0,0.4-0.1,0.7-0.4,1C119.6,33.5,119.3,33.7,118.9,33.7z"/>
<path class="st4" d="M171.3,33.7h-19.8c-0.4,0-0.7-0.1-1-0.4c-0.3-0.3-0.4-0.6-0.4-1c0-0.4,0.1-0.7,0.4-1c0.3-0.3,0.6-0.4,1-0.4
	h19.8c0.4,0,0.7,0.1,1,0.4c0.3,0.3,0.4,0.6,0.4,1c0,0.4-0.1,0.7-0.4,1C172,33.5,171.6,33.7,171.3,33.7z"/>
<path class="st4" d="M220.2,33.7h-19.8c-0.4,0-0.7-0.1-1-0.4c-0.3-0.3-0.4-0.6-0.4-1c0-0.4,0.1-0.7,0.4-1c0.3-0.3,0.6-0.4,1-0.4
	h19.8c0.4,0,0.7,0.1,1,0.4c0.3,0.3,0.4,0.6,0.4,1c0,0.4-0.1,0.7-0.4,1C220.9,33.5,220.5,33.7,220.2,33.7z"/>
<path class="st5" d="M18.8,135.3c-0.5-0.1-1-0.2-1.4-0.5c-0.4-0.3-0.8-0.6-1.1-1c-0.3-0.4-0.5-0.9-0.6-1.4c-0.1-0.5-0.1-1,0.1-1.5
	l-8.9-8.3l4.7-1.2l8.7,7.1c0.8,0.3,1.5,0.9,1.9,1.6c0.4,0.8,0.5,1.6,0.4,2.5c-0.2,0.8-0.7,1.6-1.4,2.1
	C20.5,135.2,19.6,135.4,18.8,135.3z"/>
<path class="st5" d="M31.1,196.6h4.3l2-16.4h-6.3L31.1,196.6z"/>
<path class="st6" d="M43.5,200.5l-13.4,0l0-5.2l8.2,0c1.4,0,2.7,0.5,3.7,1.5C43,197.8,43.5,199.2,43.5,200.5L43.5,200.5z"/>
<path class="st5" d="M1.9,193.5l4.1,1.1l6.2-15.3l-6.1-1.6L1.9,193.5z"/>
<path class="st6" d="M12.9,200.5L0,197.1l1.3-5l7.9,2.1c1.3,0.4,2.5,1.2,3.1,2.4C13.1,197.8,13.3,199.2,12.9,200.5z"/>
<path class="st6" d="M36.4,193.5H30c-0.4,0-0.8-0.1-1.1-0.4c-0.3-0.3-0.5-0.7-0.5-1.1L24.4,151c0-0.3-0.2-0.6-0.4-0.8
	c-0.2-0.2-0.5-0.3-0.8-0.4c-0.3,0-0.6,0-0.9,0.2c-0.3,0.2-0.4,0.4-0.5,0.7L10.4,189c-0.1,0.4-0.4,0.8-0.8,1
	c-0.4,0.2-0.8,0.3-1.2,0.2l-6-1.5c-0.2-0.1-0.4-0.1-0.6-0.3c-0.2-0.1-0.3-0.3-0.4-0.5c-0.1-0.2-0.2-0.4-0.2-0.6c0-0.2,0-0.4,0-0.6
	c0.1-0.4,9.9-38.5,9.9-38.9c2.2-16.3,4.9-20.7,6.3-23c0.1-0.2,0.2-0.4,0.3-0.5c0.1-0.2,0.9-2.3,1.3-3.7c0.1-0.2,0.2-0.4,0.3-0.6
	c0.1-0.2,0.3-0.3,0.5-0.4c6-3.1,13-0.9,15-0.2c0.3,0.1,0.6,0.3,0.8,0.6c6,9.1,3.1,61.6,2.4,72.1c0,0.4-0.2,0.8-0.5,1.1
	C37.3,193.3,36.9,193.5,36.4,193.5z"/>
<path class="st5" d="M19.7,89.8c4.7,0,8.5-3.8,8.5-8.5s-3.8-8.5-8.5-8.5c-4.7,0-8.5,3.8-8.5,8.5S15,89.8,19.7,89.8z"/>
<path class="st4" d="M18.8,122.1L18.8,122.1c-0.2-0.2-11.5-11.3-10.1-21.6c0.6-4.4,4.2-7.2,10.3-8.1c2.2-0.3,4.5,0.2,6.4,1.4
	c1.9,1.2,3.3,3.1,4,5.3l6,20.7L18.8,122.1z"/>
<path class="st4" d="M13,130.1l-8.1-8c-0.6-0.6-1-1.2-1.2-2c-0.2-0.8-0.2-1.5,0-2.3l3.9-15.9c0.1-0.5,0.3-0.9,0.6-1.3
	c0.3-0.4,0.7-0.7,1.1-1s0.9-0.4,1.4-0.4c0.5-0.1,1,0,1.5,0.1c0.9,0.3,1.6,0.9,2.1,1.7c0.4,0.8,0.5,1.8,0.3,2.7l-4.1,14l6.7,7.2
	L13,130.1z"/>
<path class="st5" d="M56.4,102.6c-0.2,0.5-0.5,0.9-0.9,1.2c-0.4,0.3-0.8,0.6-1.3,0.7c-0.5,0.1-1,0.2-1.5,0.1c-0.5-0.1-1-0.3-1.4-0.6
	l-10.8,5.6l0.5-4.8l9.6-5.9c0.5-0.7,1.3-1.1,2.1-1.3c0.8-0.1,1.7,0,2.4,0.5c0.7,0.5,1.3,1.2,1.5,2C56.8,100.9,56.7,101.8,56.4,102.6
	L56.4,102.6z"/>
<path class="st4" d="M50,106.1l-10.5,4.6c-0.7,0.3-1.5,0.4-2.2,0.3c-0.8-0.1-1.5-0.4-2.1-0.8l-13.4-9.6c-0.4-0.3-0.7-0.7-1-1.1
	c-0.3-0.4-0.4-0.9-0.5-1.4c-0.1-0.5,0-1,0.1-1.5c0.1-0.5,0.4-0.9,0.7-1.3c0.6-0.7,1.5-1.2,2.4-1.3s1.9,0.2,2.6,0.7l11.5,9l9.1-3.5
	L50,106.1z"/>
<path class="st6" d="M21.1,84c1.1-1.3,3-1.4,4.5-2.3c1.9-1.1,2.7-3.7,2.1-5.8s-2.4-3.8-4.5-4.6c-2.1-0.8-4.4-0.8-6.5-0.4
	c-3.2,0.6-6.4,2.1-8.4,4.7c-2,2.6-2.5,6.5-0.7,9.2c0.8,1.3,2.1,2.3,2.4,3.8c0.4,1.9-0.9,3.8-2.4,5.2c-1.7,1.5-3.6,2.8-5,4.6
	c-1.5,1.7-2.4,4.1-1.8,6.3c0.6,1.8,2.2,3.1,3.9,3.8c1.8,0.7,3.7,0.8,5.6,0.8c1.8,0,3.8,0,5.3-1c1.7-1.1,2.5-3.1,2.6-5
	c0.1-2-0.6-3.9-1.5-5.7c-0.5-1-1.1-2.1-1.5-3.2c-0.3-1.1-0.4-2.4,0.1-3.4c0.6-1.1,1.8-1.7,3-2c0.1,0,0.1,0,0.2,0
	c0.3,0,0.7-0.2,1-0.3c0.3-0.2,0.6-0.4,0.8-0.7c0.2-0.3,0.4-0.6,0.4-0.9c0.1-0.3,0.1-0.7,0-1C20.7,85.2,20.8,84.4,21.1,84z"/>
<path class="st7" d="M134.7,196.9h-4.3l-2-16.4h6.3L134.7,196.9z"/>
<path class="st6" d="M127.4,195.7h8.2v5.2h-13.4c0-0.7,0.1-1.4,0.4-2c0.3-0.6,0.6-1.2,1.1-1.7c0.5-0.5,1-0.9,1.7-1.1
	C126.1,195.9,126.7,195.7,127.4,195.7z"/>
<path class="st7" d="M165.6,192.1l-3.9,1.8l-8.7-14.1l5.7-2.6L165.6,192.1z"/>
<path class="st6" d="M158.4,194l7.5-3.4l2.1,4.7l-12.2,5.6c-0.3-0.6-0.4-1.3-0.5-2c0-0.7,0.1-1.4,0.3-2c0.2-0.6,0.6-1.2,1.1-1.7
	C157.2,194.7,157.8,194.3,158.4,194z"/>
<path class="st7" d="M153.2,141.6c0.4-0.3,0.7-0.7,1-1.2c0.2-0.4,0.4-0.9,0.4-1.5c0-0.5-0.1-1-0.3-1.5c-0.2-0.5-0.5-0.9-0.9-1.2
	l5-11.4l-6.4,1.1l-3.8,10.6c-0.5,0.7-0.8,1.5-0.8,2.4c0,0.9,0.4,1.7,1,2.3c0.6,0.6,1.4,1,2.3,1.1
	C151.6,142.4,152.5,142.1,153.2,141.6z"/>
<path class="st6" d="M134.4,192.6h-4.1c-0.4,0-0.8-0.2-1.1-0.4c-0.3-0.3-0.5-0.6-0.5-1l-2.2-59.2c0-0.2,0-0.5,0.1-0.7
	c0.1-0.2,0.2-0.4,0.4-0.6c0.2-0.2,0.4-0.3,0.6-0.4c0.2-0.1,0.4-0.1,0.7-0.1l23.5,2.5c0.4,0,0.7,0.2,1,0.5c0.3,0.3,0.4,0.6,0.4,1
	l0.5,26.1c0,0.1,0,0.3,0.1,0.4l9.6,25c0.1,0.2,0.1,0.4,0.1,0.6c0,0.2-0.1,0.4-0.1,0.6c-0.1,0.2-0.2,0.4-0.4,0.5
	c-0.2,0.1-0.3,0.2-0.5,0.3l-4.1,1.5c-0.4,0.1-0.8,0.1-1.1,0c-0.4-0.1-0.6-0.4-0.8-0.7l-11.8-23c-0.1-0.1-0.1-0.3-0.1-0.4l-2-9.8
	c-0.1-0.3-0.2-0.5-0.4-0.7c-0.2-0.2-0.5-0.3-0.8-0.3c-0.3,0-0.6,0.1-0.8,0.3c-0.2,0.2-0.3,0.5-0.4,0.8l-4.1,35.7
	c0,0.4-0.2,0.7-0.5,1C135.2,192.5,134.8,192.6,134.4,192.6z"/>
<path class="st7" d="M136.5,85.7c4.7,0,8.5-3.8,8.5-8.5s-3.8-8.5-8.5-8.5c-4.7,0-8.5,3.8-8.5,8.5S131.7,85.7,136.5,85.7z"/>
<path class="st1" d="M142.3,137.4c-5.8-0.1-11.4-1.8-16.3-4.9l-0.1-0.1l0-0.1l3.3-38c0.1-1.3,0.7-2.5,1.6-3.4
	c0.9-0.9,2.2-1.4,3.4-1.5c4.2-0.2,9.9,0.1,12.9,2.3c4.6,3.4,6.8,8.6,6.1,14.1c-1.5,11.5,0.2,27.1,0.4,28.8l0,0.1l-0.1,0.1
	C150.1,136.5,146.2,137.4,142.3,137.4z"/>
<path class="st1" d="M153.6,134.7c-0.2,0-0.5-0.1-0.7-0.1c-0.2-0.1-0.4-0.2-0.6-0.4l-1.9-2c-0.2-0.2-0.3-0.5-0.4-0.8
	c-0.1-0.3-0.1-0.6,0-0.9l4.2-14.4l-6.5-13.6c-0.3-0.6-0.4-1.4-0.2-2c0.1-0.6,0.5-1.1,0.9-1.6c0.5-0.4,1-0.7,1.6-0.8
	c0.6-0.1,1.2,0,1.8,0.3c0.6,0.3,1,0.7,1.3,1.3l8.8,14.2c0.4,0.6,0.6,1.2,0.6,1.9c0,0.7-0.1,1.4-0.4,2l-7.1,15.9
	c-0.1,0.3-0.3,0.5-0.5,0.7c-0.2,0.2-0.5,0.3-0.8,0.3C153.8,134.7,153.7,134.7,153.6,134.7z"/>
<path class="st7" d="M93.6,107.3c0.4,0.3,0.9,0.5,1.4,0.6c0.5,0.1,1,0.1,1.5,0c0.5-0.1,1-0.3,1.4-0.7c0.4-0.3,0.7-0.7,1-1.2
	l12.3,1.6l-2.8-5.8L97,101.2c-0.8-0.3-1.7-0.4-2.5-0.1c-0.8,0.3-1.5,0.8-1.9,1.6c-0.4,0.7-0.6,1.6-0.4,2.5
	C92.4,106,92.9,106.7,93.6,107.3L93.6,107.3z"/>
<path class="st1" d="M120.7,110.4c-0.2,0-0.4,0-0.6,0l-19.3-2.7c-0.3,0-0.6-0.2-0.9-0.4c-0.3-0.2-0.5-0.4-0.6-0.7
	c0-0.1-0.1-0.2-0.1-0.3l0,0c-0.1-0.3-0.1-0.5-0.1-0.8c0-0.3,0.1-0.5,0.3-0.7l1.6-2.7c0.2-0.3,0.4-0.5,0.7-0.7
	c0.3-0.2,0.6-0.2,0.9-0.2h0l16.9,0L132,89.9c0.6-0.5,1.3-0.8,2.1-0.9c0.7,0,1.4,0.1,2,0.5s1,0.9,1.3,1.5c0.3,0.6,0.4,1.3,0.2,2
	c-0.1,0.7-0.5,1.3-1,1.8l-12.6,14c-0.4,0.5-1,0.9-1.6,1.1C122,110.3,121.3,110.4,120.7,110.4z"/>
<path class="st6" d="M137.4,84.7c0.8-1.8,1.4-4.2-0.1-5.5c-0.9-0.7-2.1-0.7-3.2-0.8c-3.2-0.3-6.5-1.7-8.1-4.5
	c-1.6-2.8-0.7-7,2.3-8.2c2-0.9,4.3-0.3,6.3,0.3l6.2,1.8c1.9,0.5,3.8,1.1,5.1,2.5c2.1,2.2,2,6,0.3,8.5c-1.7,2.6-4.2,5.3-7.2,6.2
	L137.4,84.7z"/>
</svg>
