<?xml version="1.0" standalone="no"?>
<!DOCTYPE svg PUBLIC "-//W3C//DTD SVG 20010904//EN"
 "http://www.w3.org/TR/2001/REC-SVG-20010904/DTD/svg10.dtd">
<svg version="1.0" xmlns="http://www.w3.org/2000/svg"
 width="800.000000pt" height="800.000000pt" viewBox="0 0 800.000000 800.000000"
 preserveAspectRatio="xMidYMid meet">
<metadata>
Created by potrace 1.14, written by Peter Selinger 2001-2017
</metadata>
<g transform="translate(0.000000,800.000000) scale(0.100000,-0.100000)"
fill="#000000" stroke="none">
<path d="M3735 7993 c-231 -10 -519 -55 -746 -117 -401 -110 -815 -320 -1129
-573 -118 -94 -307 -279 -402 -393 -390 -465 -608 -990 -649 -1569 -10 -136
-8 -197 10 -457 33 -477 41 -690 41 -1161 0 -445 -10 -726 -35 -993 -7 -80
-13 -146 -12 -146 5 -4 1226 1121 1340 1234 274 271 394 428 779 1018 317 486
361 546 467 646 93 87 177 139 286 175 73 25 93 27 230 27 122 0 165 -4 230
-22 225 -60 407 -177 544 -348 229 -284 283 -649 155 -1044 -49 -152 -101
-239 -203 -340 -184 -183 -371 -233 -931 -250 -411 -12 -572 -40 -748 -129
-258 -130 -677 -527 -980 -928 -471 -624 -858 -1459 -1072 -2313 -33 -133 -70
-303 -66 -307 1 -2 106 83 232 188 782 650 1244 952 1698 1108 254 88 453 125
1086 201 532 64 619 76 767 106 1308 265 2226 1188 2502 2518 140 673 108
1291 -95 1845 -54 147 -203 442 -292 576 -566 859 -1508 1378 -2622 1445 -157
9 -225 10 -385 3z"/>
</g>
</svg>
